<?xml version="1.0" encoding="UTF-8"?>
<svg width="62px" height="22px" viewBox="0 0 62 22" version="1.1" xmlns="http://www.w3.org/2000/svg" xmlns:xlink="http://www.w3.org/1999/xlink">
    <!-- Generator: Sketch 51.2 (57519) - http://www.bohemiancoding.com/sketch -->
    <title>Shape</title>
    <desc>Created with Sketch.</desc>
    <defs></defs>
    <g id="Page-1" stroke="none" stroke-width="1" fill="none" fill-rule="evenodd">
        <g id="Property-management-school-final" transform="translate(-379.000000, -10747.000000)" fill="#746C97" fill-rule="nonzero">
            <path d="M389.25972,10747.3309 C389.703114,10746.8897 390.40116,10746.8897 390.844553,10747.3309 C391.272967,10747.7571 391.272967,10748.4666 390.844553,10748.8919 L382.808542,10756.8876 L439.874539,10756.8876 C440.492694,10756.8876 441,10757.3765 441,10757.9916 C441,10758.6066 440.492694,10759.1114 439.874539,10759.1114 L382.808542,10759.1114 L390.844553,10767.0922 C391.272967,10767.5334 391.272967,10768.2438 390.844553,10768.6691 C390.40116,10769.1103 389.703114,10769.1103 389.25972,10768.6691 L379.321311,10758.7805 C378.892896,10758.3542 378.892896,10757.6448 379.321311,10757.2195 L389.25972,10747.3309 Z" id="Shape" transform="translate(410.000000, 10758.000000) scale(-1, 1) translate(-410.000000, -10758.000000) "></path>
        </g>
    </g>
</svg>