<?xml version="1.0" encoding="UTF-8"?>
<svg width="11px" height="11px" viewBox="0 0 11 11" version="1.1" xmlns="http://www.w3.org/2000/svg" xmlns:xlink="http://www.w3.org/1999/xlink">
    <!-- Generator: Sketch 51.2 (57519) - http://www.bohemiancoding.com/sketch -->
    <title>clock-circular-outline copy 6</title>
    <desc>Created with Sketch.</desc>
    <defs></defs>
    <g id="Page-1" stroke="none" stroke-width="1" fill="none" fill-rule="evenodd">
        <g id="Property-management-school-final" transform="translate(-300.000000, -7120.000000)" fill="#746C97" fill-rule="nonzero">
            <g id="1" transform="translate(284.000000, 6673.000000)">
                <g id="time" transform="translate(16.000000, 141.000000)">
                    <g id="clock-circular-outline-copy-6" transform="translate(0.000000, 306.000000)">
                        <path d="M5.5,0 C2.46730136,0 0,2.46730136 0,5.5 C0,8.53269864 2.46730136,11 5.5,11 C8.53269864,11 11,8.53269864 11,5.5 C11,2.46730136 8.53269864,0 5.5,0 Z M5.5,10.0219279 C3.00663146,10.0219279 0.97795389,7.99348678 0.97795389,5.5 C0.97795389,3.00651322 3.00663146,0.978072132 5.5,0.978072132 C7.99336854,0.978072132 10.0220461,3.00651322 10.0220461,5.5 C10.0220461,7.99348678 7.99336854,10.0219279 5.5,10.0219279 Z" id="Shape"></path>
                        <path d="M8.17837719,5.46405229 L5.64324562,5.46405229 L5.64324562,2.76797386 C5.64324562,2.54109244 5.43527472,2.35714286 5.17876567,2.35714286 C4.92225661,2.35714286 4.71428571,2.54109244 4.71428571,2.76797386 L4.71428571,5.87488329 C4.71428571,6.10176471 4.92225661,6.28571429 5.17876567,6.28571429 L8.17837719,6.28571429 C8.43488624,6.28571429 8.64285714,6.10176471 8.64285714,5.87488329 C8.64285714,5.64800187 8.43488624,5.46405229 8.17837719,5.46405229 Z" id="Shape"></path>
                    </g>
                </g>
            </g>
        </g>
    </g>
</svg>