<svg xmlns="http://www.w3.org/2000/svg" width="248" height="248" viewBox="0 0 248 248">
    <g fill="#FFF" fill-opacity=".054" fill-rule="nonzero">
        <path d="M241.61 78.046c-8.499-8.499-22.328-8.498-30.83.002l-21.86 21.877V42.347a21.651 21.651 0 0 0-6.385-15.412l-20.551-20.55A21.655 21.655 0 0 0 146.57 0H21.798C9.778 0 0 9.778 0 21.797v204.406C0 238.222 9.779 248 21.798 248h145.323c12.02 0 21.799-9.778 21.799-21.797v-64.6l52.69-52.731c8.519-8.519 8.521-22.307 0-30.826zM145.323 14.53c1.373 0 4.018-.238 6.385 2.128l20.551 20.55c2.306 2.307 2.129 4.834 2.129 6.385h-29.065V14.53zm29.064 211.672c0 4.006-3.259 7.266-7.266 7.266H21.798c-4.006 0-7.266-3.26-7.266-7.266V21.797c0-4.006 3.26-7.266 7.266-7.266H130.79V50.86a7.266 7.266 0 0 0 7.267 7.266h36.33v56.344l-21.438 21.454-10.27 10.271a7.265 7.265 0 0 0-1.756 2.84l-10.276 30.826a7.264 7.264 0 0 0 9.19 9.19l30.829-10.275a7.26 7.26 0 0 0 2.84-1.755l.881-.882v50.065zm-16.295-74.871l10.276 10.275-3.926 3.925-15.413 5.137 5.138-15.413 3.925-3.924zm20.55-.003l-10.276-10.275 34.928-34.955 10.276 10.275-34.929 34.955zm52.69-52.73l-7.49 7.496-10.276-10.275 7.493-7.5c2.834-2.832 7.443-2.832 10.276 0a7.261 7.261 0 0 1-.003 10.278z"/>
        <path d="M138.75 73H37.25C33.246 73 30 76.134 30 80s3.246 7 7.25 7h101.5c4.004 0 7.25-3.134 7.25-7s-3.246-7-7.25-7zM109.75 101h-72.5c-4.004 0-7.25 3.134-7.25 7s3.246 7 7.25 7h72.5c4.004 0 7.25-3.134 7.25-7s-3.246-7-7.25-7zM109.75 131h-72.5c-4.004 0-7.25 3.134-7.25 7s3.246 7 7.25 7h72.5c4.004 0 7.25-3.134 7.25-7s-3.246-7-7.25-7zM109.75 160h-72.5c-4.004 0-7.25 3.134-7.25 7s3.246 7 7.25 7h72.5c4.004 0 7.25-3.134 7.25-7s-3.246-7-7.25-7zM137.75 204h-43.5c-4.004 0-7.25 3.134-7.25 7s3.246 7 7.25 7h43.5c4.004 0 7.25-3.134 7.25-7s-3.246-7-7.25-7z"/>
    </g>
</svg>
