<svg xmlns="http://www.w3.org/2000/svg" width="26" height="26" viewBox="0 0 26 26">
    <g fill="none" fill-rule="evenodd" transform="translate(1 1)">
        <path fill="#F5A146" fill-rule="nonzero" d="M5.173 13.05A.58.58 0 0 1 5 12.665a.58.58 0 0 1 .173-.385l.808-.77c.23-.22.577-.22.807 0l.058.055 3.173 3.245c.116.11.289.11.404 0l7.73-7.645h.059c.23-.22.576-.22.807 0l.808.77c.23.22.23.55 0 .77l-9.23 9.13a.536.536 0 0 1-.405.165.536.536 0 0 1-.404-.165l-4.5-4.62-.115-.165z"/>
        <circle cx="12" cy="12" r="12" stroke="#F5A146" stroke-width="2"/>
    </g>
</svg>
