<svg xmlns="http://www.w3.org/2000/svg" width="19" height="24" viewBox="0 0 19 24">
    <g fill="#FFF" fill-rule="nonzero">
        <path d="M12.74.265a.544.544 0 0 0-.395-.179H3.493C1.86.086.512 1.454.512 3.118v17.05c0 1.663 1.348 3.031 2.981 3.031h12.014c1.633 0 2.981-1.368 2.981-3.031V6.629a.606.606 0 0 0-.159-.39L12.74.265zm.158 1.792l3.743 4.003h-2.433c-.723 0-1.31-.592-1.31-1.329V2.057zm2.609 20.026H3.493c-1.025 0-1.885-.866-1.885-1.915V3.118c0-1.044.855-1.915 1.885-1.915h8.309v3.528c0 1.357 1.074 2.446 2.406 2.446h3.184v12.99c0 1.05-.855 1.916-1.885 1.916z"/>
        <path d="M14.074 18.063H4.92c-.306 0-.556.289-.556.642 0 .353.25.642.556.642h9.16c.306 0 .556-.289.556-.642 0-.353-.25-.642-.562-.642zM9.087 16.593a.558.558 0 0 0 .41.186c.158 0 .304-.07.41-.186l3.294-3.657a.593.593 0 0 0-.028-.82.547.547 0 0 0-.792.03l-2.322 2.575V8.372a.574.574 0 0 0-.562-.581.574.574 0 0 0-.562.581v6.349L6.62 12.145a.547.547 0 0 0-.792-.029.594.594 0 0 0-.028.82l3.288 3.657z"/>
    </g>
</svg>
