<svg xmlns="http://www.w3.org/2000/svg" width="63" height="66" viewBox="0 0 63 66">
    <path fill="#746C97" fill-rule="nonzero" d="M57.809 49.804l-.235-.066c-3.41-.919-4.564-1.797-6.081-2.375-5.385-2.053-6.786-3.533-7.144-4.232-.012-.024-.022-.052-.034-.076l-.034-4.71c2.88-3.858 4.94-8.672 4.94-13.66 0 0 1.944-8.292-2.706-16.095l-.002-.035-.018.002a21.379 21.379 0 0 0-4.032-4.895C40.673 2.042 36.259 0 30.935 0c-3.645 0-7.717.957-11.664 3.662-7.657 5.248-6.884 18.483-6.884 18.483s.535.135 1.5.261c-.07.742-.107 1.501-.107 2.279 0 4.988 2.059 9.802 4.94 13.66l-.035 4.71c-.012.024-.022.052-.034.076-.358.7-1.76 2.18-7.144 4.232-1.517.578-2.67 1.456-6.08 2.375l-.236.066A7.542 7.542 0 0 0 0 56.963V66h63v-9.037a7.542 7.542 0 0 0-5.191-7.159zm-12.617-37.79a19.95 19.95 0 0 1 1.512 5.562c.038.309.07.609.095.903a11.127 11.127 0 0 0-1.474-2.152 8.24 8.24 0 0 0-2.01-1.673c.555-1.348 1.255-2.156 1.877-2.64zm-29.514 3.262c.4-2.026.992-3.816 1.765-5.32.894-1.746 2.031-3.1 3.38-4.025 3.08-2.111 6.483-3.18 10.112-3.18 4.682 0 8.424 1.81 9.684 2.95a18.84 18.84 0 0 1 3.271 3.867c-1.09.731-2.299 1.988-3.162 4.145a8.198 8.198 0 0 0-1.39-.116c-2.052 0-4.262.694-6.758 2.12-6.012 3.438-11.574 4.16-15.18 4.16-.864 0-1.623-.042-2.253-.099.054-1.203.195-2.795.531-4.502zm9.408 47.973H2.748v-6.287c0-2.05 1.31-3.865 3.262-4.531l.153-.045c2.57-.693 3.99-1.371 5.131-1.92.441-.209.821-.394 1.192-.535 2.029-.774 4.56-1.841 6.423-3.198l5.835 3.053 1.008-.854.711 3.553-1.377 10.764zm-4.16-18.565c.06-.099.118-.197.17-.298a2.43 2.43 0 0 0 .103-.223l.23-.508.004-.582.012-1.59c1.481 1.467 3.057 2.688 4.611 3.586L24.38 46.49l-3.454-1.807zM31.5 63.25h-3.645l1.232-9.624h4.82l1.391 9.624h-3.798zM28.15 46.902l.668-.568c.94.31 1.844.475 2.683.475.882 0 1.838-.185 2.832-.525l.548.465-.824 4.125h-5.114l-.793-3.972zm3.351-2.844c-1.14 0-2.635-.516-4.213-1.45-1.765-1.052-3.532-2.554-5.11-4.355-3.591-4.094-5.65-9.04-5.65-13.568 0-.703.034-1.393.1-2.069.25.007.505.01.771.01 4.022 0 10.05-.808 16.544-4.52 2.186-1.25 3.953-1.76 5.394-1.76 3.46 0 5.028 2.939 5.97 5.597.322.91.727 1.538 1.15 1.967.01.256.016.515.016.775 0 4.529-2.06 9.474-5.65 13.568-1.578 1.8-3.346 3.305-5.111 4.355-1.578.934-3.074 1.45-4.21 1.45zm10.626.709l-3.295 1.724-1.764-1.495c1.514-.892 3.046-2.086 4.487-3.512l.012 1.589.004.582.228.508c.02.044.054.126.104.223.067.13.143.256.224.38zm8.713 18.482h-8.244V60.5h8.244v2.748zm9.412 0H53.59V57.75h-4.122c0-.76-.616-1.374-1.375-1.374h-2.748c-.759 0-1.374.615-1.374 1.374h-4.123v5.499h-1.771l-1.55-10.716.75-3.754 1.19 1.007 5.713-2.991c1.854 1.33 4.34 2.377 6.336 3.138.369.139.75.324 1.19.534 1.141.548 2.56 1.226 5.13 1.92l.154.044a4.79 4.79 0 0 1 3.262 4.532v6.286z"/>
</svg>
