<svg xmlns="http://www.w3.org/2000/svg" width="66" height="66" viewBox="0 0 66 66">
    <g fill="#746C97" fill-rule="nonzero">
        <path d="M48.56 18.44A1.51 1.51 0 0 0 47.5 18c-.395 0-.782.16-1.06.44-.28.278-.44.664-.44 1.06 0 .395.16.782.44 1.06.279.28.666.44 1.06.44.395 0 .782-.16 1.06-.44.28-.278.44-.665.44-1.06s-.16-.782-.44-1.06zM19.7 36H9.3A1.3 1.3 0 0 0 8 37.3v10.4A1.3 1.3 0 0 0 9.3 49h10.4a1.3 1.3 0 0 0 1.3-1.3V37.3a1.3 1.3 0 0 0-1.3-1.3zm-1.3 10.4h-7.8v-7.8h7.8v7.8zM65.205 27.098a1.287 1.287 0 0 0-1.402.279L50.687 40.493h-.001l-15.289 15.29-.001.001-8.019 8.019a1.288 1.288 0 0 0 .91 2.197h36.426c.71 0 1.287-.576 1.287-1.287V28.287c0-.52-.314-.99-.795-1.189zm-1.78 36.328h-32.03l4.911-4.912 1.23 1.229a1.283 1.283 0 0 0 1.82 0 1.287 1.287 0 0 0 0-1.82l-1.23-1.23 3.277-3.276 1.229 1.229a1.283 1.283 0 0 0 1.82 0 1.287 1.287 0 0 0 0-1.82l-1.229-1.23L46.5 48.32l1.229 1.229a1.283 1.283 0 0 0 1.82 0 1.287 1.287 0 0 0 0-1.82l-1.229-1.23 3.277-3.276 1.228 1.23a1.283 1.283 0 0 0 1.82 0 1.287 1.287 0 0 0 0-1.821l-1.228-1.229 3.276-3.276 1.229 1.228a1.283 1.283 0 0 0 1.82 0 1.287 1.287 0 0 0 0-1.82l-1.229-1.229 4.913-4.911v32.03z"/>
        <path d="M59.207 42.098a1.285 1.285 0 0 0-1.4.278l-14.43 14.43A1.285 1.285 0 0 0 44.284 59h14.43c.71 0 1.285-.575 1.285-1.285v-14.43c0-.52-.313-.988-.793-1.187zM57.43 56.43H47.388L57.43 46.388V56.43zM59.623 19.24a1.287 1.287 0 0 0-1.353-.298l-8.792 3.223a1.289 1.289 0 0 0-.468.299l-2.472 2.475-16.142-16.16a1.287 1.287 0 0 0-1.82 0L9.145 28.23h-4.75l25.09-25.119 13.768 13.784a1.287 1.287 0 0 0 1.82 0 1.29 1.29 0 0 0 0-1.823L30.397.378a1.287 1.287 0 0 0-1.82 0L.376 28.608a1.29 1.29 0 0 0 .91 2.2h1.288v33.903c0 .712.577 1.289 1.288 1.289h20.47a1.288 1.288 0 0 0 0-2.578H5.15V30.809H9.68c.341 0 .668-.136.91-.378l18.897-18.918 15.231 15.249-19.094 19.116V34.289h9.013a1.288 1.288 0 0 0 0-2.578h-10.3c-.712 0-1.288.577-1.288 1.289v14.953c0 .15.027.294.074.428l-1.153 1.155a5.244 5.244 0 0 0 0 7.402 5.207 5.207 0 0 0 3.696 1.53c1.339 0 2.678-.51 3.697-1.53L40.22 46.067a1.29 1.29 0 0 0 0-1.823 1.287 1.287 0 0 0-1.821 0l-8.227 8.236-3.75-3.755 23.524-23.552 3.751 3.755-8.989 9a1.29 1.29 0 0 0 0 1.823 1.287 1.287 0 0 0 1.821 0l9.874-9.886a1.29 1.29 0 0 0 .299-.468l3.22-8.802c.172-.47.055-1-.3-1.354zM28.352 54.304l-.811.812a2.633 2.633 0 0 1-1.876.778 2.633 2.633 0 0 1-1.875-.778 2.64 2.64 0 0 1-.777-1.878c0-.71.275-1.376.777-1.878l.81-.811 3.752 3.755zM54.99 26.577l-2.696-2.7 4.254-1.559-1.558 4.259z"/>
        <path d="M43.56 41.44A1.51 1.51 0 0 0 42.5 41c-.395 0-.782.16-1.06.44-.28.28-.44.666-.44 1.06 0 .396.16.782.44 1.062.279.279.664.438 1.06.438a1.51 1.51 0 0 0 1.06-.438c.28-.28.44-.667.44-1.062s-.16-.78-.44-1.06zM30 19c-2.757 0-5 2.243-5 5s2.243 5 5 5 5-2.243 5-5-2.243-5-5-5zm0 7.368A2.371 2.371 0 0 1 27.632 24 2.371 2.371 0 0 1 30 21.632 2.371 2.371 0 0 1 32.368 24 2.371 2.371 0 0 1 30 26.368z"/>
    </g>
</svg>
