<svg xmlns="http://www.w3.org/2000/svg" width="72" height="72" viewBox="0 0 72 72">
    <g fill="#746C97" fill-rule="nonzero">
        <path d="M43.416 53.063L31.5 49.109v-2.404a12.812 12.812 0 0 0 5.354-7.275c2.89-.342 5.146-2.768 5.146-5.734V22.934C42 14.148 34.815 7 25.984 7c-4.278 0-8.3 1.658-11.325 4.667l-1.243 1.237C9.676 13.82 7 17.184 7 21.044v12.652c0 2.966 2.256 5.392 5.146 5.734a12.8 12.8 0 0 0 5.354 7.275v2.404L5.585 53.063A8.114 8.114 0 0 0 0 60.769V72h49V60.77c0-3.503-2.243-6.6-5.584-7.707zm-25.064-1.789l4.317 4.296-4.246 2.816-.86-6.85.789-.262zm4.845 11.44h2.606l.875 6.965h-4.356l.875-6.965zm2.795-2.321h-2.984l-.62-1.848 2.112-1.4 2.112 1.4-.62 1.848zm.34-4.823l4.316-4.296.789.262-.861 6.849-4.245-2.815zm10.952-18.59c.025-.319.05-.637.05-.962v-5.59c1.354.48 2.333 1.757 2.333 3.268 0 1.529-1.002 2.817-2.383 3.284zm-27.95-3.284c0-1.51.978-2.787 2.333-3.268v5.59c0 .325.024.643.049.962-1.38-.467-2.383-1.755-2.383-3.284zm2.333-8.125v2.44a5.804 5.804 0 0 0-2.334 1.071v-8.038c0-2.878 2.06-5.377 4.895-5.942l.347-.069 1.734-1.724a13.629 13.629 0 0 1 9.675-3.988c7.545 0 13.683 6.107 13.683 13.613v6.15a5.789 5.789 0 0 0-2.334-1.073v-2.44h-1.566a14.706 14.706 0 0 1-10.442-4.302l-.825-.821-.825.82a14.706 14.706 0 0 1-10.442 4.303h-1.566zM14 36.018v-8.142a17 17 0 0 0 10.5-4.196A17.007 17.007 0 0 0 35 27.876v8.142c0 5.76-4.711 10.446-10.5 10.446S14 41.778 14 36.018zm10.5 12.768a12.8 12.8 0 0 0 4.667-.887v1.567L24.5 54.109l-4.667-4.643v-1.567a12.8 12.8 0 0 0 4.667.887zM2.333 60.769a5.798 5.798 0 0 1 3.99-5.505l8.983-2.98 1.27 10.116 3.8-2.52.6 1.79-1.006 8.009h-8.303v-6.965H9.333v6.965h-7v-8.91zm44.334 8.91h-7v-6.965h-2.334v6.965H29.03l-1.006-8.008.6-1.79 3.8 2.52 1.27-10.116 8.985 2.98a5.797 5.797 0 0 1 3.988 5.504v8.91zM69 46h3v3h-3z"/>
        <path d="M37 46h3v3h-3zM65.636 4.667h-2.363V0H46.727v4.667h-2.363v42H42V49h26v-2.333h-2.364v-42zM49.091 2.333h11.818v2.334H49.091V2.333zm9.454 44.334h-7.09v-9.334h7.09v9.334zm2.364 0V35H49.091v11.667h-2.364V7h16.546v39.667h-2.364z"/>
        <path d="M49 9h3v3h-3zM54 9h3v3h-3zM58 9h3v3h-3zM49 14h3v3h-3zM54 14h3v3h-3zM58 14h3v3h-3zM49 18h3v3h-3zM54 18h3v3h-3zM58 18h3v3h-3zM49 23h3v3h-3zM54 23h3v3h-3zM58 23h3v3h-3zM49 30h12v3H49z"/>
    </g>
</svg>
