<svg xmlns="http://www.w3.org/2000/svg" width="68" height="68" viewBox="0 0 68 68">
    <g fill="#746C97" fill-rule="nonzero">
        <path d="M66.867 65.733h-4.604c.049-.372.07-.752.07-1.133 0-3.199-1.84-5.922-4.533-7.183v-38.15c0-.68-.453-1.134-1.133-1.134h-17v-17c0-.68-.453-1.133-1.133-1.133h-30.6C7.254 0 6.8.453 6.8 1.133v64.6H1.133c-.68 0-1.133.454-1.133 1.134C0 67.547.453 68 1.133 68H66.867c.68 0 1.133-.453 1.133-1.133 0-.68-.453-1.134-1.133-1.134zm-11.334-8.986a8.184 8.184 0 0 0-1.133-.08c-.856 0-1.695.145-2.488.418-.197-.264-.516-.418-.912-.418-.68 0-1.133.453-1.133 1.133v.347c-.43.31-.83.663-1.192 1.055-.057.06-.113.122-.168.184-.94-1.174-2.15-2.023-3.517-2.436-.196-.18-.467-.284-.79-.284a1.34 1.34 0 0 0-.354.046 6.715 6.715 0 0 0-.78-.046c-.71 0-1.51.093-2.157.356-.08.027-.16.055-.24.085a7.067 7.067 0 0 0-2.664-1.348l-.03-.007a6.962 6.962 0 0 0-.462-.102l-.09-.017a6.638 6.638 0 0 0-.523-.07l-.15-.011c-.053-.004-.106-.008-.16-.01a6.728 6.728 0 0 0-.572-.004l-.161.008-.065.004a6.66 6.66 0 0 0-2.925.876V20.4h22.666v36.347zM9.067 2.267H37.4v15.866h-5.667c-.68 0-1.133.454-1.133 1.134v35.246a8.21 8.21 0 0 0-2.168-1.552 7.846 7.846 0 0 0-2.685-.784l-.04-.004a7.808 7.808 0 0 0-.774-.04A7.69 7.69 0 0 0 20.4 53.62v-.353c0-.68-.453-1.133-1.133-1.133-.68 0-1.134.453-1.134 1.133v2.267c0 .17.029.325.082.463a8.17 8.17 0 0 0-1.102 3.05 7.698 7.698 0 0 0-3.513 1.32v-.3c0-.68-.453-1.133-1.133-1.133-.68 0-1.133.453-1.133 1.133v2.267c0 .132.017.255.05.369a7.904 7.904 0 0 0-1.102 3.03H9.067V2.268zm8.55 58.956l.068-.005a5.727 5.727 0 0 1 .448-.018c.68 0 1.134-.453 1.134-1.133 0-3.174 2.493-5.667 5.666-5.667 2.834 0 5.214 2.04 5.554 4.873a1.229 1.229 0 0 0 .555.759l.053.031a1.172 1.172 0 0 0 .299.117.653.653 0 0 0 .225.029c.372.005.719-.199.908-.482l.113-.114c.907-1.133 2.154-1.813 3.627-1.813.765 0 1.53.214 2.217.615-1.352 1.271-2.119 2.929-2.208 4.702a6.806 6.806 0 0 0 .381 2.617H12.58c.53-2.44 2.55-4.285 5.038-4.51zm21.716 4.51c-.433-.732-.686-1.598-.686-2.38 0-1.253.494-2.382 1.343-3.207.162-.15.335-.29.518-.415.177 0 .355-.036.519-.118a4.457 4.457 0 0 1 6.346 2.38c.114.34.454.68 1.02.68a.782.782 0 0 0 .347-.095c.284-.046.509-.255.673-.585a5.214 5.214 0 0 1 1.947-2.2 1.04 1.04 0 0 0 .454-.258 5.747 5.747 0 0 1 2.586-.602c3.173 0 5.667 2.494 5.667 5.667 0 .34 0 .793-.113 1.133H39.333z"/>
        <path d="M37 29c-.6 0-1 .5-1 1.25v2.5c0 .75.4 1.25 1 1.25s1-.5 1-1.25v-2.5c0-.75-.4-1.25-1-1.25zM37 50c-.6 0-1 .5-1 1.25v2.5c0 .75.4 1.25 1 1.25s1-.5 1-1.25v-2.5c0-.75-.4-1.25-1-1.25zM37 36c-.6 0-1 .5-1 1.25v2.5c0 .75.4 1.25 1 1.25s1-.5 1-1.25v-2.5c0-.75-.4-1.25-1-1.25zM37 43c-.6 0-1 .5-1 1.25v2.5c0 .75.4 1.25 1 1.25s1-.5 1-1.25v-2.5c0-.75-.4-1.25-1-1.25zM37 23c-.6 0-1 .5-1 1.25v2.5c0 .75.4 1.25 1 1.25s1-.5 1-1.25v-2.5c0-.75-.4-1.25-1-1.25zM44 34c.6 0 1-.5 1-1.25v-2.5c0-.75-.4-1.25-1-1.25s-1 .5-1 1.25v2.5c0 .75.4 1.25 1 1.25zM44 28c.6 0 1-.5 1-1.25v-2.5c0-.75-.4-1.25-1-1.25s-1 .5-1 1.25v2.5c0 .75.4 1.25 1 1.25zM44 41c.6 0 1-.5 1-1.25v-2.5c0-.75-.4-1.25-1-1.25s-1 .5-1 1.25v2.5c0 .75.4 1.25 1 1.25zM44 48c.6 0 1-.5 1-1.25v-2.5c0-.75-.4-1.25-1-1.25s-1 .5-1 1.25v2.5c0 .75.4 1.25 1 1.25zM44 55c.6 0 1-.5 1-1.25v-2.5c0-.75-.4-1.25-1-1.25s-1 .5-1 1.25v2.5c0 .75.4 1.25 1 1.25zM51 41c.6 0 1-.5 1-1.25v-2.5c0-.75-.4-1.25-1-1.25s-1 .5-1 1.25v2.5c0 .75.4 1.25 1 1.25zM51 34c.6 0 1-.5 1-1.25v-2.5c0-.75-.4-1.25-1-1.25s-1 .5-1 1.25v2.5c0 .75.4 1.25 1 1.25zM51 55c.6 0 1-.5 1-1.25v-2.5c0-.75-.4-1.25-1-1.25s-1 .5-1 1.25v2.5c0 .75.4 1.25 1 1.25zM51 48c.6 0 1-.5 1-1.25v-2.5c0-.75-.4-1.25-1-1.25s-1 .5-1 1.25v2.5c0 .75.4 1.25 1 1.25zM51 28c.6 0 1-.5 1-1.25v-2.5c0-.75-.4-1.25-1-1.25s-1 .5-1 1.25v2.5c0 .75.4 1.25 1 1.25zM12 44c.6 0 1-.5 1-1.25v-2.5c0-.75-.4-1.25-1-1.25s-1 .5-1 1.25v2.5c0 .75.4 1.25 1 1.25zM12 50c.6 0 1-.5 1-1.25v-2.5c0-.75-.4-1.25-1-1.25s-1 .5-1 1.25v2.5c0 .75.4 1.25 1 1.25zM12 57c.6 0 1-.5 1-1.25v-2.5c0-.75-.4-1.25-1-1.25s-1 .5-1 1.25v2.5c0 .75.4 1.25 1 1.25zM12 10c.6 0 1-.5 1-1.25v-2.5C13 5.5 12.6 5 12 5s-1 .5-1 1.25v2.5c0 .75.4 1.25 1 1.25zM12 16c.6 0 1-.5 1-1.25v-2.5c0-.75-.4-1.25-1-1.25s-1 .5-1 1.25v2.5c0 .75.4 1.25 1 1.25zM12 23c.6 0 1-.5 1-1.25v-2.5c0-.75-.4-1.25-1-1.25s-1 .5-1 1.25v2.5c0 .75.4 1.25 1 1.25zM12 30c.6 0 1-.5 1-1.25v-2.5c0-.75-.4-1.25-1-1.25s-1 .5-1 1.25v2.5c0 .75.4 1.25 1 1.25zM12 37c.6 0 1-.5 1-1.25v-2.5c0-.75-.4-1.25-1-1.25s-1 .5-1 1.25v2.5c0 .75.4 1.25 1 1.25zM19 16c.6 0 1-.5 1-1.25v-2.5c0-.75-.4-1.25-1-1.25s-1 .5-1 1.25v2.5c0 .75.4 1.25 1 1.25zM19 10c.6 0 1-.5 1-1.25v-2.5C20 5.5 19.6 5 19 5s-1 .5-1 1.25v2.5c0 .75.4 1.25 1 1.25zM19 30c.6 0 1-.5 1-1.25v-2.5c0-.75-.4-1.25-1-1.25s-1 .5-1 1.25v2.5c0 .75.4 1.25 1 1.25zM19 23c.6 0 1-.5 1-1.25v-2.5c0-.75-.4-1.25-1-1.25s-1 .5-1 1.25v2.5c0 .75.4 1.25 1 1.25zM19 37c.6 0 1-.5 1-1.25v-2.5c0-.75-.4-1.25-1-1.25s-1 .5-1 1.25v2.5c0 .75.4 1.25 1 1.25zM19 44c.6 0 1-.5 1-1.25v-2.5c0-.75-.4-1.25-1-1.25s-1 .5-1 1.25v2.5c0 .75.4 1.25 1 1.25zM19 50c.6 0 1-.5 1-1.25v-2.5c0-.75-.4-1.25-1-1.25s-1 .5-1 1.25v2.5c0 .75.4 1.25 1 1.25zM26 23c.6 0 1-.5 1-1.25v-2.5c0-.75-.4-1.25-1-1.25s-1 .5-1 1.25v2.5c0 .75.4 1.25 1 1.25zM26 16c.6 0 1-.5 1-1.25v-2.5c0-.75-.4-1.25-1-1.25s-1 .5-1 1.25v2.5c0 .75.4 1.25 1 1.25zM26 10c.6 0 1-.5 1-1.25v-2.5C27 5.5 26.6 5 26 5s-1 .5-1 1.25v2.5c0 .75.4 1.25 1 1.25zM26 50c.6 0 1-.5 1-1.25v-2.5c0-.75-.4-1.25-1-1.25s-1 .5-1 1.25v2.5c0 .75.4 1.25 1 1.25zM26 44c.6 0 1-.5 1-1.25v-2.5c0-.75-.4-1.25-1-1.25s-1 .5-1 1.25v2.5c0 .75.4 1.25 1 1.25zM26 37c.6 0 1-.5 1-1.25v-2.5c0-.75-.4-1.25-1-1.25s-1 .5-1 1.25v2.5c0 .75.4 1.25 1 1.25zM26 30c.6 0 1-.5 1-1.25v-2.5c0-.75-.4-1.25-1-1.25s-1 .5-1 1.25v2.5c0 .75.4 1.25 1 1.25zM33 16c.6 0 1-.5 1-1.25v-2.5c0-.75-.4-1.25-1-1.25s-1 .5-1 1.25v2.5c0 .75.4 1.25 1 1.25zM33 10c.6 0 1-.5 1-1.25v-2.5C34 5.5 33.6 5 33 5s-1 .5-1 1.25v2.5c0 .75.4 1.25 1 1.25z"/>
    </g>
</svg>
