<svg xmlns="http://www.w3.org/2000/svg" width="66" height="66" viewBox="0 0 66 66">
    <g fill="#746C97" fill-rule="nonzero">
        <path d="M15.517 32.048c.327-.717.497-1.5.498-2.292 0-3.033-2.39-5.491-5.339-5.491-2.948 0-5.338 2.458-5.338 5.491.001.792.17 1.575.498 2.292C2.471 32.627.005 35.62 0 39.13v10.397c0 .606.478 1.098 1.067 1.098h3.204v14.278c0 .606.477 1.098 1.067 1.098h10.677c.59 0 1.067-.491 1.067-1.098V50.624h3.203c.59 0 1.068-.492 1.068-1.098V39.129c-.005-3.509-2.472-6.502-5.836-7.08zm3.7 16.38h-2.135V37.443h-2.135v26.36h-3.203V48.426H9.61v15.376H6.406V37.444H4.27v10.983H2.135V39.13c.003-2.749 2.169-4.976 4.841-4.98h.903c.59 0 1.067-.492 1.067-1.098 0-.317-.133-.618-.365-.827a3.284 3.284 0 0 1-1.107-2.468c0-1.82 1.434-3.295 3.202-3.295 1.77 0 3.203 1.475 3.203 3.295 0 .95-.405 1.852-1.107 2.468a1.12 1.12 0 0 0-.101 1.55c.203.239.495.375.803.376h.903c2.672.003 4.838 2.23 4.84 4.98v9.297zM54.256 4.27a3.206 3.206 0 0 1-3.203-3.202 1.068 1.068 0 0 0-2.135 0 3.206 3.206 0 0 1-3.203 3.203 1.068 1.068 0 0 0 0 2.135 3.206 3.206 0 0 1 3.203 3.203 1.068 1.068 0 0 0 2.135 0 3.206 3.206 0 0 1 3.203-3.203 1.068 1.068 0 0 0 0-2.135zm-4.27 2.14a5.383 5.383 0 0 0-1.071-1.072 5.383 5.383 0 0 0 1.07-1.07c.305.405.665.766 1.071 1.07a5.38 5.38 0 0 0-1.07 1.071z"/>
        <path d="M64.926 58.291h-4.299v-3.303c0-.608-.48-1.101-1.074-1.102h-2.15V27.75l8.455-15.163a1.118 1.118 0 0 0-.337-1.463l-3.223-2.202a1.07 1.07 0 0 0-.839-.157 1.077 1.077 0 0 0-.685.518l-4.815 8.458c-1.082-2.831-4.2-4.228-6.962-3.12a5.441 5.441 0 0 0-3.044 3.12l-4.815-8.458a1.06 1.06 0 0 0-1.524-.361l-3.224 2.202c-.47.321-.617.96-.337 1.463l8.455 15.163v26.137H42.36c-.593 0-1.074.493-1.074 1.101v3.304h-4.299c-.593 0-1.074.493-1.074 1.101V66h2.149v-5.506h4.298c.594 0 1.075-.493 1.075-1.1V56.088h15.044v3.304c0 .608.48 1.1 1.074 1.1h4.299V66H66v-6.607c0-.608-.48-1.102-1.074-1.102zm-9.672-30.834v26.43h-3.223V40.671h-2.15v13.214h-3.223v-26.43c0-.19-.05-.38-.142-.546l-8.099-14.524 1.44-.984 6.947 12.205c.193.338.546.546.928.546h.408c.593 0 1.074-.493 1.074-1.101 0-.318-.134-.62-.367-.83a3.287 3.287 0 0 1-1.115-2.474c0-1.824 1.443-3.304 3.224-3.304 1.78 0 3.224 1.48 3.224 3.304 0 .952-.408 1.857-1.115 2.475a1.12 1.12 0 0 0-.102 1.554c.204.239.499.376.809.376h.408c.382 0 .735-.208.928-.546l6.947-12.205 1.44.984-8.1 14.525a1.121 1.121 0 0 0-.14.546zM30.088 25.235h1.941v1.941h-1.941z"/>
        <path d="M35.912 27.176h1.941v1.941h-1.941zM40.765 29.118h1.941v1.941h-1.941zM30.088 33.971h1.941v1.941h-1.941zM35.912 35.912h1.941v1.941h-1.941zM40.765 37.853h1.941v1.941h-1.941zM59.206 36.882h1.941v1.941h-1.941zM64.059 38.824H66v1.941h-1.941zM59.206 44.647h1.941v1.941h-1.941zM64.059 46.588H66v1.941h-1.941zM30.66 9.636l-6.648-5.5a1.105 1.105 0 0 0-1.807.856l.02 2.19H7.897c-.609 0-1.103.493-1.103 1.1v11c0 .608.494 1.1 1.103 1.1h4.412c.609 0 1.103-.492 1.103-1.1v-5.5h8.823v2.2a1.102 1.102 0 0 0 1.81.846l6.617-5.5a1.099 1.099 0 0 0-.002-1.692zm-6.219 3.998v-.952c0-.607-.493-1.1-1.102-1.1h-11.03c-.61 0-1.103.493-1.103 1.1v5.5H9v-8.8h14.338a1.1 1.1 0 0 0 1.103-1.098v-.011l-.009-.93 3.799 3.142-3.79 3.15z"/>
    </g>
</svg>
