<svg xmlns="http://www.w3.org/2000/svg" width="65" height="65" viewBox="0 0 65 65">
    <g fill="#746C97" fill-rule="nonzero">
        <path d="M63.917 21.667h-32.5c-.65 0-1.084.433-1.084 1.083v41.167c0 .65.434 1.083 1.084 1.083h32.5c.65 0 1.083-.433 1.083-1.083V22.75c0-.65-.433-1.083-1.083-1.083zm-1.084 2.166v6.5H32.5v-2.166h13V26h-13v-2.167h30.333zm-30.333 39V32.5h30.333v30.333H32.5z"/>
        <path d="M37.917 34.667h3.25v2.167h-3.25zM43.333 34.667h3.25v2.167h-3.25zM48.75 34.667H52v2.167h-3.25zM54.167 34.667h3.25v2.167h-3.25zM35.75 40.083h4.333v2.167H35.75zM42.25 40.083h4.333v2.167H42.25zM48.75 40.083h4.333v2.167H48.75zM55.25 40.083h4.333v2.167H55.25zM35.75 44.417h4.333v2.167H35.75zM42.25 44.417h4.333v2.167H42.25zM48.75 44.417h4.333v2.167H48.75zM55.25 44.417h4.333v2.167H55.25zM35.75 48.75h4.333v2.167H35.75zM42.25 48.75h4.333v2.167H42.25zM48.75 48.75h4.333v2.167H48.75zM55.25 48.75h4.333v2.167H55.25zM35.75 53.083h4.333v2.167H35.75zM42.25 53.083h4.333v2.167H42.25zM48.75 53.083h4.333v2.167H48.75zM55.25 53.083h4.333v2.167H55.25zM35.75 57.417h4.333v2.167H35.75zM42.25 57.417h4.333v2.167H42.25zM48.75 57.417h4.333v2.167H48.75zM55.25 57.417h4.333v2.167H55.25zM2.167 15.167h11.916c.65 0 1.084-.434 1.084-1.084V2.167H52v15.166h2.167V1.083c0-.65-.434-1.083-1.084-1.083h-39c-.108 0-.216 0-.325.108h-.108c-.108.109-.217.109-.325.217l-13 13c-.108.108-.108.217-.217.325v.108c0 .109-.108.217-.108.325V26h2.167V15.167zM13 13H3.683l4.659-4.658L13 3.683V13zM27.083 46.583H15.167V31.417c0-.65-.434-1.084-1.084-1.084h-13c-.65 0-1.083.434-1.083 1.084v32.5C0 64.567.433 65 1.083 65h26c.65 0 1.084-.433 1.084-1.083v-16.25c0-.65-.434-1.084-1.084-1.084zM2.167 48.75H13V52H2.167v-3.25zM13 46.583H2.167v-3.25H13v3.25zm0-5.416H2.167v-3.25H13v3.25zm-10.833 13H13v3.25H2.167v-3.25zm13 0H26v3.25H15.167v-3.25zM26 52H15.167v-3.25H26V52zM2.167 32.5H13v3.25H2.167V32.5zm0 27.083H13v3.25H2.167v-3.25zM26 62.833H15.167v-3.25H26v3.25z"/>
        <path d="M41.167 5.417h7.583v2.167h-7.583zM29.25 10.833h19.5V13h-19.5zM47.667 26h3.25v2.167h-3.25z"/>
    </g>
</svg>
