<svg xmlns="http://www.w3.org/2000/svg" xmlns:xlink="http://www.w3.org/1999/xlink" width="162" height="88" viewBox="0 0 162 88">
    <defs>
        <path id="a" d="M.011.397h93.57v87.578H.01z"/>
    </defs>
    <g fill="none" fill-rule="evenodd">
        <path fill="#6D6386" d="M8.7 36.924c0-.619-.164-1.074-.49-1.365-.327-.29-.769-.437-1.325-.437H5.387v3.74h1.527c.48 0 .897-.15 1.253-.45.355-.3.532-.796.532-1.488zm5.3.027c0 .928-.154 1.76-.461 2.498a5.399 5.399 0 0 1-1.31 1.897c-.567.528-1.253.933-2.06 1.215-.807.283-1.7.424-2.68.424H5.388V50H0V31h7.46c.98 0 1.869.114 2.665.341.797.228 1.484.587 2.06 1.079a4.921 4.921 0 0 1 1.34 1.856c.317.746.475 1.638.475 2.675zM24.327 36.924c0-.582-.147-1.028-.443-1.338-.295-.309-.692-.464-1.19-.464h-1.469v3.549h1.524c.184 0 .369-.027.553-.082.185-.055.35-.15.499-.286a1.64 1.64 0 0 0 .374-.547c.101-.227.152-.504.152-.832zM24.651 50l-2.395-7.207h-1.03V50H16V31h7.517c1.862 0 3.349.482 4.457 1.447 1.108.965 1.663 2.43 1.663 4.395 0 1.11-.219 2.07-.655 2.88-.436.81-1.128 1.479-2.075 2.007L30 50h-5.349zM39.613 38.26c0-.323-.005-.635-.014-.94a5.963 5.963 0 0 0-.1-.911 1.395 1.395 0 0 0-.52-.846c-.269-.205-.595-.308-.979-.308s-.716.107-.994.322c-.279.215-.447.5-.504.858a14.177 14.177 0 0 0-.115 1.824v4.589a14.612 14.612 0 0 0 .115 1.85c.076.376.25.653.518.833.269.178.596.268.98.268 1.075 0 1.613-.6 1.613-1.798V38.26zM45 42.48c0 .803-.048 1.597-.144 2.382a5.87 5.87 0 0 1-.718 2.194c-.518.946-1.3 1.672-2.343 2.181-1.045.509-2.315.763-3.81.763-1.552 0-2.85-.241-3.895-.723-1.045-.481-1.816-1.177-2.315-2.087-.383-.66-.608-1.418-.675-2.275-.067-.856-.1-1.667-.1-2.435v-3.96c0-.446.019-.884.057-1.312.038-.428.096-.847.172-1.257.25-1.517.944-2.72 2.085-3.613C34.454 31.446 36.01 31 37.986 31c1.188 0 2.223.152 3.104.455.882.303 1.61.736 2.185 1.297a5.374 5.374 0 0 1 1.294 2.021c.287.785.431 1.66.431 2.623v5.084zM55.7 36.924c0-.619-.164-1.074-.49-1.365-.327-.29-.768-.437-1.325-.437h-1.498v3.74h1.527c.48 0 .897-.15 1.253-.45.355-.3.532-.796.532-1.488zm5.3.027c0 .928-.154 1.76-.46 2.498a5.406 5.406 0 0 1-1.311 1.897c-.567.528-1.253.933-2.06 1.215-.807.283-1.7.424-2.679.424h-2.103V50H47V31h7.46c.98 0 1.869.114 2.666.341.796.228 1.483.587 2.06 1.079a4.93 4.93 0 0 1 1.339 1.856c.317.746.475 1.638.475 2.675zM64 50V31h13v4.286h-7.503v2.866h6.311v4.287h-6.311v3.275H77V50H64M86.327 36.924c0-.582-.148-1.028-.443-1.338-.296-.309-.692-.464-1.19-.464h-1.468v3.549h1.523c.184 0 .37-.027.553-.082a1.25 1.25 0 0 0 .499-.286 1.64 1.64 0 0 0 .374-.547c.102-.227.152-.504.152-.832zM86.651 50l-2.395-7.207h-1.03V50H78V31h7.517c1.863 0 3.348.482 4.457 1.447 1.108.965 1.663 2.43 1.663 4.395 0 1.11-.219 2.07-.654 2.88-.437.81-1.129 1.479-2.075 2.007L92 50h-5.349zM101.722 35.286V50h-5.444V35.286H92V31h14v4.286h-4.278M115.088 37.825c.156-.455.31-.901.467-1.338.156-.437.31-.882.467-1.337l1.343-4.15H123l-5.285 11.82V50h-5.43v-7.18L107 31h5.694a184.618 184.618 0 0 1 1.343 4.15l.963 2.675h.088"/>
        <path fill="#281D2A" d="M9.722 70v-7.069l-.092-.021-1.092 2.694-.843 1.94H5.327l-.888-2.07-1.07-2.586-.09.022V70H0V55h3.028l1.844 4.181 1.571 3.75h.114l1.525-3.772L9.904 55H13v15H9.722M19.786 62.004l-.476 2.156h2.38l-.452-2.134-.667-2.996h-.119l-.666 2.974zm2.69 4.936h-3.928c-.143.503-.29 1.013-.441 1.53-.15.517-.306 1.027-.464 1.53H14l4.786-15h3.429L27 70h-3.714l-.81-3.06zM35.09 70l-2.957-5-1.741-3.168-.069.021V70H27V55h2.934l2.612 4.483 2.085 3.62.069-.021V55H38v15h-2.91M43.786 62.004l-.476 2.156h2.38l-.452-2.134-.667-2.996h-.119l-.666 2.974zm2.69 4.936h-3.928c-.143.503-.29 1.013-.441 1.53-.15.517-.306 1.027-.464 1.53H38l4.786-15h3.428L51 70h-3.714l-.81-3.06zM55.966 54c.713 0 1.352.102 1.916.307a4.705 4.705 0 0 1 1.447.817c.401.34.728.732.98 1.178.253.445.43.908.535 1.39l-3.051.87a4.203 4.203 0 0 0-.145-.5 1.434 1.434 0 0 0-.323-.52 2.047 2.047 0 0 0-.557-.402 1.752 1.752 0 0 0-.802-.17c-.326 0-.6.053-.824.159-.222.106-.4.24-.534.402-.134.162-.23.339-.29.53-.06.19-.089.37-.089.539v5.461c0 .55.13 1.016.39 1.397.26.382.702.572 1.325.572.683 0 1.162-.158 1.437-.474.274-.316.412-.698.412-1.147V63.27h-2.094v-2.61H61v3.205c0 .763-.104 1.46-.312 2.09a4.339 4.339 0 0 1-.946 1.623 4.25 4.25 0 0 1-1.582 1.05c-.631.247-1.362.371-2.194.371-.89 0-1.651-.134-2.283-.403-.63-.269-1.143-.633-1.536-1.093a4.407 4.407 0 0 1-.869-1.601 6.508 6.508 0 0 1-.278-1.91v-5.262c0-.552.089-1.107.267-1.665a4.262 4.262 0 0 1 .858-1.518c.393-.452.905-.823 1.536-1.113.631-.29 1.4-.435 2.305-.435M64 70V55h9v2.888h-5.778v3.104h4.979v2.866h-4.979v3.19H73V70h-9M83.721 70v-7.069l-.09-.021-1.094 2.694-.841 1.94h-2.368l-.889-2.07-1.07-2.586-.091.022V70H74V55h3.028l1.844 4.181 1.571 3.75h.114l1.525-3.772L83.904 55H87v15h-3.279M87 70V55h9v2.888h-5.778v3.104H95.2v2.866h-4.978v3.19H96V70h-9M106.09 70l-2.957-5-1.742-3.168-.069.021V70H98V55h2.933l2.613 4.483 2.085 3.62.07-.021V55H109v15h-2.91"/>
        <g transform="translate(68)">
            <mask id="b" fill="#fff">
                <use xlink:href="#a"/>
            </mask>
            <path fill="#281D2A" d="M48.84 57.72v12.537h-3.22V57.72h-3.332v-2.934h9.882v2.934h-3.33" mask="url(#b)"/>
            <path fill="#281D2A" d="M.011 74.294V88h49.516l44.054-43.794L49.513.397 24.429 25.333h13.802l11.282-11.216 30.266 30.089-30.265 30.088H.01" mask="url(#b)"/>
        </g>
        <path fill="#FFFFFE" d="M76.751 78.33a4.48 4.48 0 0 0-1.323-.572 5.27 5.27 0 0 0-1.235-.162c-.634 0-1.085.12-1.353.36-.267.24-.401.534-.401.883 0 .206.047.38.14.515.094.137.245.255.453.353.208.1.47.184.786.255.317.07.697.143 1.142.219.375.065.747.152 1.112.26.366.11.692.269.979.48.287.213.517.486.69.82.172.334.259.756.259 1.265 0 .48-.104.906-.312 1.278a2.843 2.843 0 0 1-.848.939 3.97 3.97 0 0 1-1.241.58c-.471.13-.97.197-1.495.197A8.1 8.1 0 0 1 72 85.71a5.157 5.157 0 0 1-2-1.066l1.085-1.328c.446.396.932.676 1.458.84a5.497 5.497 0 0 0 1.65.248c.575 0 1.038-.113 1.39-.34.353-.226.528-.56.528-1.002 0-.396-.156-.694-.468-.897-.312-.202-.786-.35-1.42-.445a13.426 13.426 0 0 1-1.316-.233 3.906 3.906 0 0 1-1.152-.452 2.325 2.325 0 0 1-.81-.812c-.204-.339-.305-.781-.305-1.328 0-.49.1-.916.3-1.278.199-.362.464-.664.794-.904s.706-.42 1.127-.536A4.808 4.808 0 0 1 74.164 76c.663 0 1.286.07 1.866.212a5.06 5.06 0 0 1 1.613.706l-.892 1.412M86 83.709c-.241.717-.658 1.277-1.248 1.683-.59.405-1.308.608-2.154.608-.605 0-1.135-.097-1.588-.29a3.086 3.086 0 0 1-1.125-.792 3.299 3.299 0 0 1-.664-1.188A4.78 4.78 0 0 1 79 82.25v-2.517c0-.49.073-.962.221-1.414.147-.453.369-.852.664-1.196.295-.344.67-.617 1.125-.82.453-.203.983-.304 1.588-.304.855 0 1.573.21 2.154.63.58.419.993.973 1.234 1.661l-1.59.637c-.12-.387-.331-.7-.634-.94-.302-.241-.69-.362-1.164-.362a1.94 1.94 0 0 0-.844.17 1.686 1.686 0 0 0-.592.46 1.996 1.996 0 0 0-.356.658 2.428 2.428 0 0 0-.119.75v2.616c0 .273.04.535.119.785.08.25.197.474.356.672.157.198.355.356.592.474.237.117.519.176.844.176.465 0 .85-.125 1.157-.375.307-.25.521-.576.641-.982l1.604.679"/>
        <path fill="#FFFFFE" d="M90.339 86v-4.282H86.66V86H85V76h1.66v4.195h3.679V76H92v10h-1.661M96.984 77.612c-.36 0-.672.057-.935.17a1.868 1.868 0 0 0-1.053 1.117 2.208 2.208 0 0 0-.131.75v2.645c0 .274.044.535.131.785.088.25.22.474.395.672a1.9 1.9 0 0 0 .658.474c.263.118.575.177.935.177.33 0 .627-.054.89-.163a1.916 1.916 0 0 0 1.083-1.11c.098-.255.147-.533.147-.835v-2.645c0-.283-.05-.547-.147-.792a1.944 1.944 0 0 0-.418-.644 1.968 1.968 0 0 0-.665-.438 2.31 2.31 0 0 0-.89-.163zM96.992 76c.617 0 1.171.094 1.665.283.493.188.915.448 1.264.778s.616.724.801 1.18c.186.458.278.956.278 1.493v2.517c0 .576-.095 1.094-.285 1.557-.19.462-.46.855-.81 1.18-.349.326-.77.576-1.264.75a4.926 4.926 0 0 1-1.649.262c-.668 0-1.254-.102-1.757-.305a3.507 3.507 0 0 1-1.249-.82 3.383 3.383 0 0 1-.74-1.195A4.144 4.144 0 0 1 93 82.251v-2.517c0-.49.082-.962.246-1.414a3.38 3.38 0 0 1 .74-1.196c.33-.344.746-.617 1.249-.82.503-.203 1.089-.304 1.757-.304zM106.985 77.612c-.361 0-.673.057-.936.17a1.872 1.872 0 0 0-1.052 1.117 2.197 2.197 0 0 0-.132.75v2.645c0 .274.044.535.132.785.087.25.219.474.394.672.175.198.395.356.658.474s.575.177.936.177c.33 0 .626-.054.89-.163a1.92 1.92 0 0 0 .664-.446c.181-.188.32-.41.418-.664.098-.255.147-.533.147-.835v-2.645c0-.283-.049-.547-.147-.792a1.942 1.942 0 0 0-.418-.644 1.973 1.973 0 0 0-.664-.438 2.313 2.313 0 0 0-.89-.163zm.007-1.612c.617 0 1.172.094 1.665.283.493.188.915.448 1.264.778.35.33.617.724.801 1.18.186.458.278.956.278 1.493v2.517c0 .576-.095 1.094-.285 1.557-.19.462-.46.855-.81 1.18a3.58 3.58 0 0 1-1.263.75 4.93 4.93 0 0 1-1.65.262c-.668 0-1.254-.102-1.757-.305a3.503 3.503 0 0 1-1.249-.82 3.376 3.376 0 0 1-.739-1.195 4.133 4.133 0 0 1-.247-1.429v-2.517c0-.49.082-.962.247-1.414.164-.453.41-.852.74-1.196.329-.344.745-.617 1.248-.82.503-.203 1.09-.304 1.757-.304z"/>
        <path fill="#FFFFFE" d="M111 86V76h1.817v8.42H118V86h-7"/>
    </g>
</svg>
