<svg xmlns="http://www.w3.org/2000/svg" xmlns:xlink="http://www.w3.org/1999/xlink" width="115" height="63" viewBox="0 0 115 63">
    <defs>
        <path id="a" d="M.008.284h66.651v62.698H.008z"/>
    </defs>
    <g fill="none" fill-rule="evenodd">
        <path fill="#F2F2F4" d="M6.07 26.765c0-.45-.113-.781-.338-.993-.225-.211-.53-.318-.914-.318H3.785v2.72h1.053c.331 0 .62-.11.864-.327.245-.219.368-.58.368-1.082zm3.655.02c0 .674-.106 1.28-.318 1.816a3.937 3.937 0 0 1-.903 1.38c-.391.383-.864.678-1.42.883a5.298 5.298 0 0 1-1.849.308h-1.45v5.1H.07V22.458h5.146c.675 0 1.288.083 1.837.248.55.166 1.023.427 1.42.784.398.358.706.808.925 1.35.218.543.327 1.191.327 1.946zM16.937 26.765c0-.424-.105-.748-.315-.973-.21-.225-.492-.338-.847-.338h-1.043v2.581h1.083c.131 0 .262-.02.393-.06.132-.04.25-.109.355-.208.105-.1.193-.231.266-.397.072-.165.108-.367.108-.605zm.23 9.508l-1.703-5.24h-.732v5.24h-3.715V22.457h5.344c1.324 0 2.38.35 3.169 1.052.788.702 1.182 1.767 1.182 3.196 0 .807-.155 1.506-.465 2.094-.31.59-.802 1.076-1.476 1.46l2.2 6.014h-3.804zM28.281 27.683c0-.239-.003-.47-.01-.696a4.745 4.745 0 0 0-.069-.677 1.048 1.048 0 0 0-.358-.627 1.03 1.03 0 0 0-.675-.229c-.265 0-.494.08-.686.24a.984.984 0 0 0-.347.636 11.207 11.207 0 0 0-.08 1.353v3.404a11.655 11.655 0 0 0 .08 1.372c.052.28.172.485.357.618.185.132.41.199.676.199.741 0 1.112-.445 1.112-1.334v-4.259zm3.715 3.131c0 .595-.033 1.185-.099 1.767a4.587 4.587 0 0 1-.495 1.627 3.677 3.677 0 0 1-1.616 1.618c-.72.377-1.596.566-2.627.566-1.07 0-1.966-.179-2.687-.536-.72-.357-1.252-.873-1.596-1.548-.264-.49-.42-1.052-.466-1.688a24.927 24.927 0 0 1-.069-1.806v-2.938c0-.33.013-.655.04-.973.026-.317.066-.628.118-.932.173-1.125.651-2.018 1.438-2.68.786-.662 1.86-.993 3.222-.993.82 0 1.533.113 2.141.338.608.225 1.11.546 1.507.962.396.417.694.917.892 1.5.198.582.297 1.23.297 1.945v3.771zM39.764 26.765c0-.45-.112-.781-.337-.993-.226-.211-.53-.318-.914-.318h-1.034v2.72h1.054c.33 0 .619-.11.864-.327.245-.219.367-.58.367-1.082zm3.656.02c0 .674-.106 1.28-.318 1.816a3.942 3.942 0 0 1-.904 1.38c-.39.383-.864.678-1.42.883a5.297 5.297 0 0 1-1.848.308h-1.45v5.1h-3.716V22.458h5.146a6.37 6.37 0 0 1 1.838.248c.55.166 1.023.427 1.42.784.398.358.706.808.924 1.35.219.543.328 1.191.328 1.946zM44.712 36.273V22.457h8.88v3.117h-5.126v2.084h4.312v3.117h-4.312v2.381h5.126v3.117h-8.88M61.003 26.765c0-.424-.106-.748-.315-.973-.21-.225-.493-.338-.847-.338h-1.044v2.581h1.083c.131 0 .263-.02.394-.06.131-.04.25-.109.354-.208.105-.1.194-.231.266-.397.073-.165.109-.367.109-.605zm.23 9.508l-1.703-5.24h-.733v5.24h-3.715V22.457h5.344c1.325 0 2.38.35 3.17 1.052.787.702 1.181 1.767 1.181 3.196 0 .807-.155 1.506-.465 2.094-.31.59-.802 1.076-1.475 1.46l2.199 6.014h-3.803zM72.367 25.574v10.699H68.65v-10.7h-2.92v-3.116h9.556v3.117h-2.92M81.078 27.42c.107-.33.213-.655.32-.973.106-.318.213-.642.32-.973l.918-3.017h3.856l-3.616 8.595v5.22h-3.715v-5.22l-3.616-8.595h3.896a140.263 140.263 0 0 1 .918 3.017l.66 1.946h.06M6.8 50.297v-5.219l-.063-.016-.765 1.99-.589 1.432H3.727l-.621-1.528-.749-1.91-.064.016v5.235H0V39.222h2.118l1.29 3.087 1.1 2.77h.079l1.067-2.786 1.274-3.07h2.166v11.074H6.801M13.457 44.394l-.318 1.591h1.592l-.302-1.575-.446-2.212h-.08l-.446 2.196zm1.8 3.644h-2.628c-.095.371-.194.748-.295 1.13-.1.382-.204.758-.31 1.13H9.587l3.201-11.076h2.294l3.2 11.075H15.8l-.542-2.259zM24.542 50.297l-2.055-3.691-1.21-2.34-.048.016v6.015h-2.31V39.222h2.04l1.815 3.31 1.45 2.674.047-.016v-5.968h2.294v11.075h-2.023M30.992 44.394l-.319 1.591h1.593l-.302-1.575-.446-2.212h-.08l-.446 2.196zm1.8 3.644h-2.628c-.096.371-.194.748-.295 1.13-.1.382-.204.758-.31 1.13h-2.437l3.201-11.076h2.293l3.202 11.075h-2.485l-.541-2.259zM39.863 39.143c.51 0 .966.077 1.37.23.403.154.748.359 1.034.613.287.255.52.55.701.883.18.334.308.682.382 1.042l-2.181.653a3.271 3.271 0 0 0-.104-.374 1.085 1.085 0 0 0-.231-.39 1.47 1.47 0 0 0-.398-.302 1.204 1.204 0 0 0-.573-.127c-.234 0-.43.04-.59.119-.159.08-.286.18-.382.301a1.177 1.177 0 0 0-.207.397 1.416 1.416 0 0 0-.064.405v4.096c0 .413.093.762.28 1.048.185.285.5.428.947.428.488 0 .83-.118 1.027-.355.196-.237.295-.524.295-.86v-.854h-1.497V44.14h3.79v2.403a5.2 5.2 0 0 1-.223 1.567 3.293 3.293 0 0 1-.677 1.218c-.302.34-.68.602-1.13.787-.452.186-.975.279-1.57.279-.636 0-1.18-.101-1.632-.302a2.928 2.928 0 0 1-1.099-.82 3.357 3.357 0 0 1-.62-1.201 5.102 5.102 0 0 1-.2-1.432V42.69c0-.413.064-.83.191-1.249.128-.419.332-.798.614-1.138.28-.339.647-.617 1.098-.835.452-.217 1.001-.326 1.649-.326M44.672 50.297V39.222h6.45v2.133h-4.14v2.291h3.567v2.116h-3.568v2.355h4.14v2.18h-6.45M58.83 50.297v-5.219l-.063-.016-.765 1.99-.588 1.432h-1.657l-.621-1.528-.749-1.91-.064.016v5.235H52.03V39.222h2.118l1.29 3.087 1.1 2.77h.079l1.067-2.786 1.274-3.07h2.166v11.074H58.83M62.541 50.297V39.222h6.45v2.133h-4.14v2.291h3.567v2.116h-3.567v2.355h4.14v2.18h-6.45M82.83 41.323v8.974h-2.292v-8.974h-2.373v-2.1h7.039v2.1H82.83M75.537 50.297l-2.054-3.691-1.21-2.34-.049.016v6.015h-2.309V39.222h2.039l1.816 3.31 1.448 2.674.048-.016v-5.968h2.294v11.075h-2.023"/>
        <g transform="translate(48.042)">
            <mask id="b" fill="#fff">
                <use xlink:href="#a"/>
            </mask>
            <path fill="#929292" d="M.008 53.188V63h35.271l31.38-31.353L35.27.284 17.402 18.136h9.83l8.037-8.03 21.56 21.541-21.56 21.54H.009" mask="url(#b)"/>
        </g>
        <path fill="#FFFFFE" d="M54.029 56.588a2.88 2.88 0 0 0-.873-.397 3.312 3.312 0 0 0-.814-.112c-.418 0-.715.083-.891.25a.81.81 0 0 0-.265.611c0 .144.031.263.093.358a.74.74 0 0 0 .298.245c.137.068.31.127.518.176.209.049.46.1.753.152.247.045.492.106.733.18.241.076.456.187.645.334.19.147.341.336.455.568.114.232.171.524.171.877 0 .333-.068.628-.206.886a1.94 1.94 0 0 1-.558.65c-.236.177-.509.311-.819.403-.31.091-.639.137-.985.137-.451 0-.914-.067-1.387-.201a3.348 3.348 0 0 1-1.318-.74l.715-.92c.294.274.614.469.96.583.347.114.71.171 1.088.171.38 0 .685-.078.917-.235.232-.157.348-.389.348-.695 0-.275-.103-.482-.309-.622-.206-.14-.518-.243-.936-.309a8.455 8.455 0 0 1-.867-.161 2.502 2.502 0 0 1-.76-.314c-.222-.14-.4-.328-.534-.563-.134-.235-.2-.541-.2-.92 0-.34.065-.636.197-.887.131-.251.306-.46.523-.627.218-.166.466-.29.744-.372.278-.081.564-.122.858-.122.438 0 .848.049 1.23.147.383.098.737.261 1.064.49l-.588.979M60.253 60.32a2.24 2.24 0 0 1-.877 1.165c-.416.28-.92.42-1.515.42a2.87 2.87 0 0 1-1.116-.2 2.17 2.17 0 0 1-.79-.548 2.275 2.275 0 0 1-.467-.823 3.264 3.264 0 0 1-.156-1.024v-1.743c0-.34.052-.666.156-.98.103-.313.26-.589.466-.827.208-.238.472-.427.791-.568a2.75 2.75 0 0 1 1.116-.21c.602 0 1.106.145 1.515.435.408.29.697.675.867 1.151l-1.118.441a1.303 1.303 0 0 0-.445-.651c-.213-.167-.485-.25-.819-.25-.228 0-.426.04-.593.117a1.183 1.183 0 0 0-.416.319 1.376 1.376 0 0 0-.25.455c-.056.17-.084.343-.084.52v1.811c0 .19.028.37.084.543.055.174.139.329.25.466.11.137.25.246.416.328.167.081.365.122.593.122.327 0 .598-.086.814-.26.215-.172.366-.399.45-.68l1.128.47M64.752 61.847v-2.919h-2.627v2.92h-1.186V55.03h1.186v2.86h2.627v-2.86h1.186v6.816h-1.186M69.374 56.098c-.23 0-.428.04-.596.118a1.193 1.193 0 0 0-.418.318 1.372 1.372 0 0 0-.25.455c-.056.17-.084.343-.084.52v1.83c0 .19.028.372.083.544.056.173.14.328.251.466.112.137.251.246.418.328.168.081.366.122.596.122.21 0 .398-.037.565-.113.167-.075.309-.178.423-.308.115-.13.204-.284.266-.46.062-.177.093-.37.093-.578v-1.832c0-.195-.031-.378-.093-.548a1.363 1.363 0 0 0-.266-.446 1.249 1.249 0 0 0-.423-.303 1.363 1.363 0 0 0-.565-.113zm.005-1.116c.391 0 .744.065 1.058.196.314.13.582.31.804.538.222.229.392.501.51.818.117.317.176.661.176 1.033v1.743c0 .399-.06.758-.181 1.078a2.32 2.32 0 0 1-.515.818 2.25 2.25 0 0 1-.804.519 2.9 2.9 0 0 1-1.048.18 2.76 2.76 0 0 1-1.118-.21c-.32-.14-.585-.33-.794-.568a2.384 2.384 0 0 1-.47-.827 3.1 3.1 0 0 1-.157-.99v-1.743c0-.34.052-.666.157-.98a2.232 2.232 0 0 1 1.264-1.396c.32-.14.692-.21 1.118-.21zM75.108 56.098c-.23 0-.428.04-.596.118a1.196 1.196 0 0 0-.417.318 1.366 1.366 0 0 0-.251.455c-.056.17-.084.343-.084.52v1.83c0 .19.028.372.084.544.055.173.139.328.25.466.112.137.252.246.418.328.168.081.366.122.596.122.21 0 .398-.037.566-.113a1.22 1.22 0 0 0 .422-.308c.115-.13.204-.284.266-.46.062-.177.093-.37.093-.578v-1.832c0-.195-.03-.378-.093-.548a1.363 1.363 0 0 0-.266-.446 1.252 1.252 0 0 0-.422-.303 1.365 1.365 0 0 0-.566-.113zm.005-1.116c.392 0 .745.065 1.058.196.314.13.582.31.804.538.222.229.392.501.51.818.117.317.176.661.176 1.033v1.743c0 .399-.06.758-.181 1.078-.121.32-.293.592-.515.818-.222.225-.49.398-.803.519-.314.12-.664.18-1.05.18a2.76 2.76 0 0 1-1.117-.21c-.32-.14-.584-.33-.794-.568a2.38 2.38 0 0 1-.47-.827 3.091 3.091 0 0 1-.157-.99v-1.743c0-.34.052-.666.157-.98a2.23 2.23 0 0 1 1.264-1.396c.32-.14.693-.21 1.118-.21zM78.583 61.847v-6.816h1.185v5.739h3.382v1.077h-4.567"/>
    </g>
</svg>
