<svg xmlns="http://www.w3.org/2000/svg" width="102" height="102" viewBox="0 0 102 102">
    <g fill="none" fill-rule="nonzero">
        <path fill="#005092" d="M0 0h102v102H0z"/>
        <path fill="#FEFEFE" d="M9.903 9.903h5.32v1.327h-3.907v1.828h1.926c.448-.012.894.062 1.318.22.377.164.697.456.915.835.251.4.38.878.369 1.365.013.49-.116.972-.369 1.373-.214.338-.51.601-.854.759-.44.16-.902.232-1.365.212H9.903v-7.92zm1.413 6.576h1.366c.334.008.668-.023.997-.09a.93.93 0 0 0 .471-.334 1 1 0 0 0 .198-.637.925.925 0 0 0-.348-.805 2.154 2.154 0 0 0-1.202-.25h-1.482v2.116zM17.825 17.825V9.903h1.98v7.922zM21.454 12.122l-1.522-.352c.327-1.234 1.257-1.854 2.792-1.86a3.098 3.098 0 0 1 2.057.594c.437.34.691.857.69 1.406.004.353-.105.699-.311.988-.255.323-.58.586-.95.769.447.128.847.383 1.15.732.265.333.401.748.386 1.171a2.001 2.001 0 0 1-.742 1.626 3.489 3.489 0 0 1-2.228.622 3.832 3.832 0 0 1-1.916-.403 2.498 2.498 0 0 1-1.054-1.464l1.426-.469c.076.361.289.68.594.894.278.145.59.216.906.205.378.01.747-.115 1.04-.352a.975.975 0 0 0 .333-.732c0-.29-.14-.562-.378-.732a1.884 1.884 0 0 0-1.159-.293h-.356v-1.157h.185c.392.025.779-.09 1.092-.322a1.04 1.04 0 0 0 .379-.842.93.93 0 0 0-.305-.732 1.268 1.268 0 0 0-.854-.242 1.2 1.2 0 0 0-1.255.945zM26.738 17.825V9.903h1.5v3.117h2.942V9.903h1.5v7.922h-1.5v-3.467h-2.942v3.467zM34.66 17.825V9.903h5.777v1.338h-4.19v1.756h3.913v1.346h-3.913v2.137h4.355v1.345zM46.997 14.86l1.527.471a3.382 3.382 0 0 1-1.19 1.88 3.5 3.5 0 0 1-2.116.612 3.514 3.514 0 0 1-2.604-1.047 3.924 3.924 0 0 1-1.015-2.86 4.131 4.131 0 0 1 1.023-2.949 3.585 3.585 0 0 1 2.695-1.061 3.4 3.4 0 0 1 2.375.833c.399.391.679.88.81 1.415l-1.589.369a1.606 1.606 0 0 0-.588-.944 1.751 1.751 0 0 0-1.092-.347 1.855 1.855 0 0 0-1.435.612 2.952 2.952 0 0 0-.55 1.99c-.067.73.124 1.46.542 2.072.347.405.868.634 1.413.62.406.007.799-.135 1.1-.399.37-.336.615-.782.694-1.268zM48.524 15.845v-.99h2.971v.99zM52.485 9.903H54v6.592h2.152V9.903h1.515v6.592h2.231V9.903h1.5v7.922h-8.913zM63.379 9.956H65v3.349a1.08 1.08 0 0 0 .773-.272c.25-.382.45-.794.595-1.225a3.234 3.234 0 0 1 1.012-1.587 3.197 3.197 0 0 1 1.615-.31h.24v1.179h-.24a1.576 1.576 0 0 0-.726.121.979.979 0 0 0-.379.37c-.17.322-.318.656-.44.998a3.563 3.563 0 0 1-.325.68 1.613 1.613 0 0 1-.61.515c.359.098.674.31.896.604.307.405.579.835.811 1.285l1.097 2.162h-1.939l-.966-2.033s-.046-.083-.085-.166c-.038-.084-.093-.16-.208-.37a2.408 2.408 0 0 0-.51-.757 1.156 1.156 0 0 0-.61-.151v3.455h-1.623V9.956zM69.326 13.897a5.118 5.118 0 0 1 .328-1.955c.165-.391.397-.746.683-1.047.26-.293.57-.527.915-.688a3.746 3.746 0 0 1 1.537-.3c.938-.045 1.85.335 2.513 1.046a4.21 4.21 0 0 1 .943 2.93 4.148 4.148 0 0 1-.936 2.891c-.657.713-1.566 1.094-2.5 1.047a3.253 3.253 0 0 1-2.527-1.04 4.145 4.145 0 0 1-.956-2.884zm1.482-.051a3.078 3.078 0 0 0 .553 1.97c.36.434.88.678 1.421.665.54.017 1.06-.228 1.414-.666a3.079 3.079 0 0 0 .553-1.991 3.032 3.032 0 0 0-.54-1.919 1.754 1.754 0 0 0-1.427-.644 1.78 1.78 0 0 0-1.434.652 3.079 3.079 0 0 0-.54 1.933zM77.31 9.903h4.884v7.871H80.79v-6.542h-2.101v3.362c.015.674-.014 1.348-.087 2.017-.04.343-.188.659-.415.891-.3.239-.664.351-1.03.317-.168 0-.469 0-.904-.053v-1.23h.315a.927.927 0 0 0 .595-.137c.1-.09.154-.31.154-.657v-5.84h-.006zM92.097 17.825h-1.736l-.682-1.802h-3.162l-.652 1.802h-1.69l3.032-7.922h1.76l3.13 7.922zm-2.934-3.14l-1.092-2.927-1.06 2.927h2.152z"/>
        <path fill="#FFF" d="M13.601 66.35h73.85c2.011-.02 3.636-1.633 3.656-3.63V30.28s-.772-1.56-3.698-1.56c-2.927 0-3.684 1.56-3.684 1.56v28.74H17.292V30.28s-.793-1.56-3.705-1.56c-2.913 0-3.684 1.56-3.684 1.56V62.72c.02 2.013 1.67 3.634 3.698 3.63zM20.814 79.33l-3.986 8.89-3.986-8.89s-.46-1.097-1.068-1.097H9.903v12.874h2.31V82.71h.231c.02.618.16 1.226.412 1.79 0 0 2.415 5.39 2.569 5.743.076.17.17.33.279.48.16.213.35.383.51.383h1.228c.16 0 .35-.17.503-.382.111-.15.207-.311.286-.481.154-.354 2.576-5.744 2.576-5.744a4.842 4.842 0 0 0 .405-1.79h.251v8.397h2.304V78.233h-1.892c-.6 0-1.06 1.096-1.06 1.096z"/>
        <path fill="#FFF" d="M51 52.485c1.914 0 3.466-1.626 3.466-3.632V30.265s-.731-1.547-3.473-1.547c-2.741 0-3.459 1.547-3.459 1.547v18.602a3.715 3.715 0 0 0 1.018 2.562A3.38 3.38 0 0 0 51 52.485zM67.76 49.778a3.32 3.32 0 0 0 2.048.727 3.239 3.239 0 0 0 2.07-.727L81.2 39.83a3.816 3.816 0 0 0 .995-1.956V30.7a3.857 3.857 0 0 0-1.968.989l-10.41 10.819-10.411-10.82a3.828 3.828 0 0 0-1.968-.988v7.176c.132.735.478 1.415.995 1.956l9.328 9.947zM26.738 79.436v11.67h1.98V78.234h-1.16c-.647 0-.82.474-.82 1.203zM30.129 49.778c.581.463 1.303.72 2.048.727a3.217 3.217 0 0 0 2.07-.727l9.321-9.947a3.816 3.816 0 0 0 .995-1.956V30.7a3.857 3.857 0 0 0-1.968.989L32.192 42.507l-10.41-10.82a3.857 3.857 0 0 0-1.976-.988v7.176a3.809 3.809 0 0 0 1.002 1.956l9.32 9.947zM76.252 79.434v11.673h1.981V78.233h-1.167c-.64 0-.814.473-.814 1.201zM90.076 78.233c-.655 0-.943 1.095-.943 1.095l-2.79 8.347c-.05.189-.077.383-.08.579v.254h-.201v-.254a3.61 3.61 0 0 0-.094-.58l-2.784-8.346s-.38-1.095-.985-1.095h-1.985s3.898 11.68 4.014 12.005c.053.166.123.327.208.48.115.212.331.389.453.389h2.54c.115 0 .33-.177.446-.389.082-.154.151-.315.208-.48.122-.353 4.014-12.005 4.014-12.005h-2.021zM71.321 79.328l-1.708 4.657c-.057.188-.09.382-.1.579v.318h-.193v-.304a2.19 2.19 0 0 0-.128-.586l-1.822-4.664s-.436-1.095-1.122-1.095h-1.88c2.902 7.504 3.773 9.624 3.773 9.624v3.25h2.365v-3.25l3.766-9.624h-1.9c-.715 0-1.051 1.095-1.051 1.095zM42.628 79.33l-3.996 8.89-3.996-8.89s-.455-1.097-1.071-1.097h-1.876v12.874h2.317V82.71h.23c.021.618.161 1.226.414 1.79 0 0 2.421 5.39 2.575 5.743.077.17.17.33.28.48.161.213.35.383.511.383h1.239c.16 0 .35-.17.51-.382.11-.15.204-.311.28-.481l2.576-5.744c.256-.562.399-1.17.42-1.79h.224v8.397h2.288V78.233H43.7c-.61 0-1.071 1.096-1.071 1.096zM63.152 78.254h-2.543l-3.875 5.408v-4.23c0-.705-.2-1.199-.935-1.199h-1.333v12.831h2.268v-3.778l.982-1.305 2.914 5.126h2.749l-4.213-7.142 3.986-5.71zM48.576 85.165c-.633 0-1.042.174-1.042.817v1.164h3.909c.633 0 1.042-.174 1.042-.817v-1.164h-3.909z"/>
    </g>
</svg>
