<?xml version="1.0" encoding="UTF-8"?>
<svg width="74px" height="74px" viewBox="0 0 74 74" version="1.1" xmlns="http://www.w3.org/2000/svg" xmlns:xlink="http://www.w3.org/1999/xlink">
    <!-- Generator: Sketch 51.2 (57519) - http://www.bohemiancoding.com/sketch -->
    <title>checked (1)</title>
    <desc>Created with Sketch.</desc>
    <defs></defs>
    <g id="Page-1" stroke="none" stroke-width="1" fill="none" fill-rule="evenodd">
        <g id="Property-management-school-final" transform="translate(-1034.000000, -10721.000000)" fill="#F5A146" fill-rule="nonzero" stroke="#F5A146" stroke-width="0.5">
            <g id="checked-(1)" transform="translate(1035.000000, 10722.000000)">
                <path d="M61.4557969,10.5440625 C54.6562969,3.7445625 45.6160781,0 36,0 C26.3839219,0 17.3437031,3.7445625 10.5443437,10.5440625 C3.7445625,17.3437031 0,26.3840625 0,36 C0,45.6159375 3.7445625,54.6562969 10.5443437,61.4559375 C17.3437031,68.2554375 26.3839219,72 36,72 C45.6160781,72 54.6562969,68.2554375 61.4557969,61.4559375 C68.2554375,54.6562969 72,45.6159375 72,36 C72,26.3840625 68.2554375,17.3437031 61.4557969,10.5440625 Z M36,69.1315313 C17.7312656,69.1315313 2.86846875,54.268875 2.86846875,36 C2.86846875,17.731125 17.7312656,2.86846875 36,2.86846875 C54.2687344,2.86846875 69.1315313,17.7312656 69.1315313,36 C69.1315313,54.2687344 54.2687344,69.1315313 36,69.1315313 Z" id="Shape"></path>
                <path d="M56.5378583,20.4380226 C54.5881961,18.5206591 51.4157574,18.5206591 49.4660951,20.4380226 L28.427869,41.1275833 L21.53401,34.3482062 C19.5843477,32.4308428 16.411909,32.4308428 14.4622467,34.3482062 C12.5125844,36.2655696 12.5125844,39.3854524 14.4622467,41.3029536 L24.8920574,51.5598421 C25.8366308,52.4886296 27.0923265,53 28.427869,53 C29.7634115,53 31.0191072,52.4884919 31.9638207,51.5597044 L56.5378583,27.39277 C58.4873806,25.4752688 58.4873806,22.3552482 56.5378583,20.4380226 Z M54.5173145,25.4055615 L29.943417,49.5724959 C29.5385798,49.9704887 29.0003844,50.1899426 28.4280091,50.1899426 C27.8556338,50.1899426 27.3174384,49.9706264 26.9127413,49.5724959 L16.4830707,39.3156074 C15.647341,38.4937227 15.647341,37.1567482 16.4829306,36.3350013 C16.9006554,35.9241968 17.4494969,35.7187945 17.9983385,35.7187945 C18.5470399,35.7187945 19.0960216,35.9243345 19.5136062,36.3351391 L27.4175971,44.1081893 C27.9758242,44.656893 28.880194,44.656893 29.438281,44.1081893 L51.4864988,22.4249555 C52.3222285,21.6032086 53.6818651,21.6032086 54.5174546,22.4249555 C55.3529041,23.2467023 55.3529041,24.5836769 54.5173145,25.4055615 Z" id="Shape"></path>
                <path d="M64.9022254,41.0446252 C64.121706,40.8496537 63.3293303,41.3117306 63.1309149,42.0763495 C59.9089869,54.4800122 48.5291742,63.1429388 35.4569029,63.1429388 C34.6523851,63.1429388 34,63.782479 34,64.5714694 C34,65.3604598 34.6523851,66 35.4569029,66 C49.8626567,66 62.4036777,56.452278 65.9545838,42.7814405 C66.153142,42.0171017 65.6821734,41.2393166 64.9022254,41.0446252 Z" id="Shape"></path>
                <path d="M65.0096015,34 C64.4626926,34 64.0192031,34.7718836 64.0192031,35.7241438 C64.0192031,36.2170944 64.0130853,36.7139331 64.0009469,37.2014741 C63.9772527,38.15272 64.4011265,38.9573993 64.947647,38.9984785 C64.9622131,38.9994928 64.9766821,39 64.9911511,39 C65.5184444,39 65.9568843,38.2761267 65.9798988,37.3502384 C65.9932996,36.8135037 66,36.266457 66,35.7241438 C66,34.7718836 65.5565105,34 65.0096015,34 Z" id="Shape"></path>
            </g>
        </g>
    </g>
</svg>