<?xml version="1.0" encoding="UTF-8"?>
<svg width="88px" height="161px" viewBox="0 0 88 161" version="1.1" xmlns="http://www.w3.org/2000/svg" xmlns:xlink="http://www.w3.org/1999/xlink">
    <!-- Generator: Sketch 51.2 (57519) - http://www.bohemiancoding.com/sketch -->
    <title>50-percent-practice</title>
    <desc>Created with Sketch.</desc>
    <defs></defs>
    <g id="Symbols" stroke="none" stroke-width="1" fill="none" fill-rule="evenodd">
        <g id="50-percent-practice">
            <g id="60-percent">
                <g transform="translate(0.000000, 0.661017)">
                    <g id="Asset-1">
                        <path d="M71.146087,151.641791 C71.146087,147.02568 74.8932689,143.283582 79.5156522,143.283582 C84.1380354,143.283582 87.8852174,147.02568 87.8852174,151.641791 C87.8852174,156.257902 84.1380354,160 79.5156522,160 C74.8932689,160 71.146087,156.257902 71.146087,151.641791 Z M52.1304348,155.195224 C47.7885675,153.614616 45.5512187,148.818861 47.1326087,144.482388 C47.8906769,142.398473 49.447235,140.701006 51.4593723,139.76394 C53.4715096,138.826873 55.7741426,138.727088 57.86,139.486567 C62.2018673,141.067175 64.4392161,145.86293 62.8578261,150.199403 C61.6573102,153.500774 58.5170903,155.699572 55,155.701493 C54.0211758,155.7018 53.0499023,155.530441 52.1304348,155.195224 Z M28.026087,141.287164 C24.4875858,138.319184 24.027287,133.048965 26.9978261,129.51403 C28.4238369,127.814229 30.4677939,126.750004 32.6797613,126.555622 C34.8917287,126.36124 37.0903844,127.052636 38.7917391,128.477612 C42.330812,131.4473 42.7910548,136.719015 39.82,140.255522 C38.229924,142.148821 35.8809204,143.240387 33.4065217,143.235821 C31.4387463,143.241973 29.5324507,142.551561 28.026087,141.287164 Z M10.143913,120.028657 C7.82919458,116.033684 9.19522345,110.921234 13.1952174,108.608955 C17.1956177,106.297377 22.3150142,107.661553 24.6304348,111.656119 C26.9451532,115.651092 25.5791244,120.763542 21.5791304,123.075821 C20.308302,123.81388 18.8644557,124.202777 17.3943478,124.202985 C14.4043981,124.204748 11.6405962,122.613531 10.143913,120.028657 Z M0.616956522,93.9176119 C-0.181770213,89.3704394 2.86021892,85.0370506 7.41304348,84.2364179 C9.59985236,83.8535422 11.8493925,84.3540438 13.6666185,85.6277798 C15.4838445,86.9015158 16.7198412,88.8441081 17.1026087,91.0280597 C17.9011889,95.574174 14.8586715,99.9061771 10.3065217,100.704478 C9.83272193,100.786962 9.35268441,100.828509 8.87173913,100.828657 C4.8047423,100.832348 1.3230471,97.9174131 0.616956522,93.9176119 Z M7.40826087,75.8304478 C5.22144567,75.4492628 3.2758474,74.216111 1.99952234,72.4023011 C0.723197287,70.5884913 0.220708072,68.3426195 0.602608696,66.158806 C0.984311526,63.974958 2.2191389,62.0319996 4.03541314,60.7574063 C5.85168737,59.482813 8.10061064,58.9810056 10.2873913,59.3623881 C12.4742065,59.743573 14.4198048,60.9767249 15.6961298,62.7905347 C16.9724549,64.6043445 17.4749441,66.8502163 17.0930435,69.0340299 C16.3861532,73.0248326 12.9156522,75.9351319 8.8573913,75.9402985 C8.37206349,75.9459786 7.8871693,75.9092214 7.40826087,75.8304478 Z M13.1473913,51.4722388 C9.14619481,49.1614957 7.77624244,44.0503837 10.0865217,40.0525373 C11.1936359,38.1293956 13.0208797,36.7246462 15.1657542,36.1477223 C17.3106287,35.5707985 19.5971816,35.8690274 21.5217391,36.9767164 C25.5229356,39.2874596 26.892888,44.3985716 24.5826087,48.3964179 C23.0865185,50.9842176 20.3195767,52.5761925 17.3273913,52.5707463 C15.8663856,52.5683422 14.4316101,52.1829607 13.1665217,51.4531343 L13.1473913,51.4722388 Z M26.9547826,30.5289552 C25.525907,28.8331025 24.8304482,26.6396978 25.0215079,24.4316081 C25.2125676,22.2235184 26.2744828,20.1817618 27.9734783,18.7558209 C29.6724228,17.3286113 31.8695785,16.6339725 34.0814507,16.824763 C36.2933229,17.0155536 38.3386656,18.0761398 39.7673913,19.7731343 C41.1951482,21.4701909 41.8889828,23.6643446 41.696125,25.8724817 C41.5032672,28.0806188 40.4395304,30.1216832 38.7391304,31.5462687 C37.234145,32.8147439 35.3280572,33.5101565 33.3586957,33.5092537 C30.8879331,33.5096717 28.5435338,32.4186185 26.9547826,30.5289552 Z M47.0417391,15.5510448 C46.2805938,13.4685854 46.3790454,11.1694584 47.3154338,9.15949248 C48.2518221,7.14952661 49.9494352,5.59338495 52.0347826,4.83343284 C54.1193878,4.07175757 56.4216705,4.16877076 58.434615,5.10310787 C60.4475596,6.03744498 62.0060808,7.73247933 62.7669565,9.81492537 C63.5298251,11.8973605 63.4328081,14.1971801 62.4972604,16.2081626 C61.5617128,18.2191451 59.8643179,19.7764572 57.7786957,20.5373134 C56.8599415,20.8757086 55.8883811,21.0487351 54.9091304,21.0483582 C51.3919589,21.0477704 48.2503993,18.8512809 47.0465217,15.5510448 L47.0417391,15.5510448 Z M71.0647826,8.38686567 C71.0558804,6.16561053 71.9332359,4.03228316 73.5029028,2.45847227 C75.0725698,0.884661388 77.2052743,-1.77905812e-05 79.4295652,-5.49607048e-15 C84.0508594,-0.002642423 87.8007787,3.73363899 87.8086957,8.34865672 C87.811234,10.565392 86.9318764,12.6923424 85.364072,14.2616023 C83.7962676,15.8308623 81.6684428,16.7138859 79.4486957,16.7164179 C77.2285609,16.7202212 75.0979833,15.8424649 73.5263156,14.2765131 C71.9546478,12.7105613 71.0708313,10.5848864 71.0695652,8.36776119 L71.0647826,8.38686567 Z" id="Shape" fill="#746C97" fill-rule="nonzero"></path>
                        <path d="M13.1473913,51.4722388 C9.14619481,49.1614957 7.77624244,44.0503837 10.0865217,40.0525373 C11.1936359,38.1293956 13.0208797,36.7246462 15.1657542,36.1477223 C17.3106287,35.5707985 19.5971816,35.8690274 21.5217391,36.9767164 C25.5229356,39.2874596 26.892888,44.3985716 24.5826087,48.3964179 C23.0865185,50.9842176 20.3195767,52.5761925 17.3273913,52.5707463 C15.8663856,52.5683422 14.4316101,52.1829607 13.1665217,51.4531343 L13.1473913,51.4722388 Z M26.9547826,30.5289552 C25.525907,28.8331025 24.8304482,26.6396978 25.0215079,24.4316081 C25.2125676,22.2235184 26.2744828,20.1817618 27.9734783,18.7558209 C29.6724228,17.3286113 31.8695785,16.6339725 34.0814507,16.824763 C36.2933229,17.0155536 38.3386656,18.0761398 39.7673913,19.7731343 C41.1951482,21.4701909 41.8889828,23.6643446 41.696125,25.8724817 C41.5032672,28.0806188 40.4395304,30.1216832 38.7391304,31.5462687 C37.234145,32.8147439 35.3280572,33.5101565 33.3586957,33.5092537 C30.8879331,33.5096717 28.5435338,32.4186185 26.9547826,30.5289552 Z M47.0417391,15.5510448 C46.2805938,13.4685854 46.3790454,11.1694584 47.3154338,9.15949248 C48.2518221,7.14952661 49.9494352,5.59338495 52.0347826,4.83343284 C54.1193878,4.07175757 56.4216705,4.16877076 58.434615,5.10310787 C60.4475596,6.03744498 62.0060808,7.73247933 62.7669565,9.81492537 C63.5298251,11.8973605 63.4328081,14.1971801 62.4972604,16.2081626 C61.5617128,18.2191451 59.8643179,19.7764572 57.7786957,20.5373134 C56.8599415,20.8757086 55.8883811,21.0487351 54.9091304,21.0483582 C51.3919589,21.0477704 48.2503993,18.8512809 47.0465217,15.5510448 L47.0417391,15.5510448 Z M71.0647826,8.38686567 C71.0558804,6.16561053 71.9332359,4.03228316 73.5029028,2.45847227 C75.0725698,0.884661388 77.2052743,-1.77905812e-05 79.4295652,-1.90706179e-14 C84.0508594,-0.002642423 87.8007787,3.73363899 87.8086957,8.34865672 C87.811234,10.565392 86.9318764,12.6923424 85.364072,14.2616023 C83.7962676,15.8308623 81.6684428,16.7138859 79.4486957,16.7164179 C77.2285609,16.7202212 75.0979833,15.8424649 73.5263156,14.2765131 C71.9546478,12.7105613 71.0708313,10.5848864 71.0695652,8.36776119 L71.0647826,8.38686567 Z M4.65820716,74.8413998 C0.542704801,72.5298629 -0.866384266,67.4169952 1.50989491,63.4177756 C2.64863708,61.4939732 4.52808135,60.0887413 6.7342305,59.5116193 C8.94037965,58.9344972 11.2922546,59.2328286 13.2717927,60.3408981 C17.3872951,62.652435 18.7963841,67.7653027 16.420105,71.7645223 C14.8812745,74.353211 12.035287,75.9457326 8.95762108,75.9402846 C7.45487744,75.9378797 5.97911343,75.5523658 4.67788411,74.8222887 L4.65820716,74.8413998 Z" id="Shape" fill="#D8D8D8" fill-rule="nonzero"></path>
                    </g>
                    <g id="Asset-2" transform="translate(4.782609, 4.776119)" fill="#FFFFFF">
                        <path d="M71.146087,147.104478 C71.146087,144.994255 72.8590844,143.283582 74.9721739,143.283582 C77.0852634,143.283582 78.7982609,144.994255 78.7982609,147.104478 C78.7982609,149.2147 77.0852634,150.925373 74.9721739,150.925373 C72.8590844,150.925373 71.146087,149.2147 71.146087,147.104478 Z M49.146087,146.392836 C47.1616411,145.670818 46.1383825,143.479569 46.86,141.497313 C47.2071649,140.544461 47.91935,139.768488 48.8397107,139.340285 C49.7600715,138.912083 50.8131247,138.866771 51.7669565,139.214328 C53.7476081,139.940234 54.7660372,142.130304 54.0434783,144.109851 C53.494179,145.620842 52.0566248,146.62691 50.4469565,146.626866 C49.9949869,146.627609 49.5464603,146.548375 49.1221739,146.392836 L49.146087,146.392836 Z M26.4286957,133.277612 C25.650471,132.627188 25.1628728,131.694658 25.0731801,130.685192 C24.9834874,129.675727 25.2990484,128.672029 25.9504348,127.894925 C26.6017427,127.117757 27.53554,126.63082 28.5463767,126.541249 C29.5572134,126.451678 30.5622758,126.766811 31.3404348,127.417313 C32.1186594,128.067738 32.6062576,129.000268 32.6959503,130.009733 C32.785643,131.019198 32.470082,132.022897 31.8186957,132.8 C31.0908471,133.664032 30.0175954,134.162339 28.8869565,134.161194 C27.9808999,134.169474 27.1013049,133.856363 26.4047826,133.277612 L26.4286957,133.277612 Z M9.55565217,113.21791 C8.49705923,111.392489 9.12004425,109.055724 10.9473913,107.997612 C12.7672813,106.950973 15.0917991,107.564887 16.1556522,109.373134 C16.6743025,110.253308 16.8185319,111.304199 16.5561521,112.291275 C16.2937724,113.278351 15.6466227,114.119452 14.7591304,114.626866 C14.1774085,114.961919 13.5176274,115.138171 12.846087,115.13791 C11.4768746,115.13625 10.2129218,114.404043 9.53173913,113.21791 L9.55565217,113.21791 Z M0.55,88.5970149 C0.185324452,86.5200208 1.57447494,84.5406557 3.65391304,84.1743284 C5.73530151,83.8103359 7.71808266,85.2002485 8.0826087,87.278806 C8.44728424,89.3558001 7.05813375,91.3351652 4.97869565,91.7014925 C4.7590962,91.7391279 4.53672224,91.7582997 4.31391304,91.758806 L4.30434783,91.758806 C2.45132198,91.7518466 0.869636114,90.4198016 0.55,88.5970149 Z M3.64434783,66.8226866 C1.56296619,66.4586551 0.171165167,64.4785643 0.535652174,62.4 C0.900178206,60.3214425 2.88295936,58.9315299 4.96434783,59.2955224 C7.04352317,59.6596278 8.4345975,61.6365475 8.07304348,63.7134328 C7.74834578,65.5377386 6.15976407,66.8664713 4.30434783,66.8656716 C4.08353036,66.8698376 3.86275302,66.8554586 3.64434783,66.8226866 Z M10.8947826,42.9850746 C9.06570123,41.9285974 8.4404725,39.5914475 9.49826087,37.7647761 C10.5561736,35.9381765 12.8964989,35.3137961 14.7256522,36.3701493 C16.5518651,37.4264918 17.1767086,39.7600645 16.1221739,41.5856716 C15.4385558,42.7681264 14.1750623,43.496426 12.8078261,43.4961194 C12.1362856,43.4963803 11.4765045,43.3201284 10.8947826,42.9850746 Z M25.8882609,23.0734328 C25.2368745,22.2963297 24.9213135,21.292631 25.0110062,20.2831658 C25.1006989,19.2737007 25.5882971,18.3411705 26.3665217,17.6907463 C27.1446807,17.0402437 28.1497432,16.7251109 29.1605799,16.8146819 C30.1714166,16.9042529 31.1052138,17.3911895 31.7565217,18.1683582 C32.4079081,18.9454613 32.7234691,19.9491601 32.6337764,20.9586252 C32.5440837,21.9680904 32.0564855,22.9006206 31.2782609,23.5510448 C30.5887745,24.1307149 29.7165067,24.4487029 28.8152174,24.4489552 C27.6839103,24.445137 26.6122951,23.9415317 25.8882609,23.0734328 Z M46.773913,9.45671642 C46.425645,8.50479162 46.4703481,7.453688 46.8981862,6.53468121 C47.3260242,5.61567441 48.1019435,4.90406091 49.0552174,4.55641791 C51.0388092,3.83531073 53.2324444,4.85476849 53.9573913,6.83462687 C54.6830984,8.81557023 53.66408,11.0090455 51.6808696,11.7349254 C51.2611079,11.8888066 50.8175844,11.9680153 50.3704348,11.9689552 C48.7619941,11.9697296 47.3248039,10.965825 46.773913,9.45671642 Z M74.8956522,7.64179104 C72.7825627,7.64179104 71.0695652,5.93111785 71.0695652,3.82089552 C71.0695652,1.71067319 72.7825627,3.87641553e-16 74.8956522,0 C77.0087417,1.29213851e-16 78.7217391,1.71067319 78.7217391,3.82089552 C78.7217391,5.93111785 77.0087417,7.64179104 74.8956522,7.64179104 C72.7865217,7.64179104 74.9004348,7.64179104 74.8956522,7.64179104 Z" id="Shape" fill-rule="nonzero"></path>
                    </g>
                </g>
            </g>
        </g>
    </g>
</svg>