<?xml version="1.0" encoding="UTF-8"?>
<svg width="88px" height="161px" viewBox="0 0 88 161" version="1.1" xmlns="http://www.w3.org/2000/svg" xmlns:xlink="http://www.w3.org/1999/xlink">
    <!-- Generator: Sketch 51.2 (57519) - http://www.bohemiancoding.com/sketch -->
    <title>50-percent-theory</title>
    <desc>Created with Sketch.</desc>
    <defs></defs>
    <g id="Symbols" stroke="none" stroke-width="1" fill="none" fill-rule="evenodd">
        <g id="50-percent-theory">
            <g id="40-percent">
                <g id="Asset-1-Copy">
                    <g>
                        <path d="M71.1473883,152.589552 C71.1473883,147.94459 74.9199739,144.179105 79.5736941,144.179105 C84.2274144,144.179105 88,147.94459 88,152.589552 C88,157.234514 84.2274144,161 79.5736941,161 C74.9199739,161 71.1473883,157.234514 71.1473883,152.589552 Z M52.0028214,156.165194 C47.6315188,154.574707 45.3790021,149.748979 46.971113,145.385403 C47.7343205,143.288464 49.3014311,141.580387 51.3272095,140.637464 C53.3529879,139.694541 55.6712314,139.594133 57.7712296,140.358358 C62.1425322,141.948845 64.3950489,146.774574 62.802938,151.138149 C61.5942833,154.460154 58.4327746,156.672694 54.8918405,156.674627 C53.9063805,156.674936 52.9285224,156.502507 52.0028214,156.165194 Z M27.7350605,142.170209 C24.1725704,139.183679 23.709151,133.880521 26.6998286,130.323493 C28.135507,128.613068 30.1933207,127.542192 32.4202839,127.346595 C34.6472471,127.150998 36.8608085,127.846715 38.5736974,129.280597 C42.1367631,132.268846 42.600126,137.573509 39.6089292,141.13212 C38.0080734,143.037252 35.6431451,144.135639 33.1519714,144.131045 C31.1708556,144.137235 29.2516365,143.442508 27.7350605,142.170209 Z M9.73165616,120.778836 C7.40124529,116.758895 8.77653502,111.614492 12.8036465,109.287762 C16.8311671,106.961737 21.9852701,108.334438 24.3163878,112.353971 C26.6467987,116.373911 25.271509,121.518315 21.2443975,123.845045 C19.9649536,124.587717 18.5113189,124.979045 17.0312445,124.979254 C14.0210248,124.981028 11.2384859,123.379866 9.73165616,120.778836 Z M0.140112577,94.5045976 C-0.664029046,89.9290053 2.39858296,85.5685329 6.98227293,84.7628962 C9.18390707,84.3776275 11.4486977,84.8812573 13.2782434,86.1629541 C15.1077892,87.444651 16.3521651,89.3993844 16.7375276,91.5969857 C17.5415217,96.1715131 14.4783779,100.530591 9.89536724,101.333881 C9.41835536,101.416881 8.93506347,101.458687 8.45085767,101.458836 C4.35628904,101.46255 0.850990028,98.5293975 0.140112577,94.5045976 Z M6.9774579,76.3043888 C4.77581741,75.9208215 2.81702915,74.6799624 1.53205137,72.8548163 C0.247073592,71.0296702 -0.2588222,68.7697617 0.125667482,66.5722993 C0.509958028,64.3748023 1.75315679,62.4197004 3.58174428,61.137141 C5.41033177,59.8545815 7.67450139,59.3496378 9.87610712,59.7334039 C12.0777476,60.1169712 14.0365359,61.3578303 15.3215137,63.1829764 C16.6064914,65.0081225 17.1123872,67.268031 16.7278975,69.4654933 C16.016215,73.4812385 12.522186,76.4097272 8.43641257,76.4149261 C7.94779453,76.4206417 7.45961304,76.3836547 6.9774579,76.3043888 Z M12.7554962,51.7939413 C8.727174,49.468756 7.34793417,44.3256996 9.67387578,40.3028667 C10.7884956,38.3677054 12.6281269,36.9541763 14.7875424,36.3736467 C16.9469579,35.793117 19.2490122,36.0932099 21.1866171,37.207822 C25.2149393,39.5330073 26.5941791,44.6760637 24.2682375,48.6988965 C22.7620047,51.30287 19.9763047,52.9047946 16.9638341,52.8993144 C15.4929236,52.8968953 14.0484212,52.5091052 12.7747563,51.7747174 L12.7554962,51.7939413 Z M26.6564934,30.7197623 C25.2179308,29.0133106 24.5177572,26.8061971 24.7101122,24.5843068 C24.9024671,22.3624166 25.9715815,20.307899 27.6820952,18.873046 C29.3925575,17.4369164 31.6046087,16.7379361 33.831476,16.9299191 C36.0583433,17.1219021 38.1175523,18.1891169 39.5559639,19.8967177 C40.9934001,21.6043808 41.6919385,23.8122479 41.4977733,26.0341859 C41.303608,28.2561238 40.2326596,30.3099448 38.520732,31.743434 C37.0055437,33.0198372 35.0865338,33.7195961 33.1038211,33.7186877 C30.6163083,33.7191083 28.2560153,32.621236 26.6564934,30.7197623 Z M46.8796274,15.6482401 C46.113322,13.5527654 46.212441,11.2392688 47.1551775,9.21674064 C48.097914,7.1942125 49.8070359,5.62834496 51.9065207,4.86364316 C54.0052583,4.09720743 56.3231491,4.19482695 58.3497402,5.13500366 C60.3763313,6.07518037 61.9454184,7.78080866 62.7114524,9.87626998 C63.4794927,11.9717204 63.381818,14.2859138 62.4399279,16.3094649 C61.4980378,18.333016 59.7891356,19.9000613 57.6893741,20.6656729 C56.7643913,21.006183 55.7862443,21.1802909 54.8003549,21.1799117 C51.259339,21.1793202 48.0964816,18.9691026 46.8844424,15.6482401 L46.8796274,15.6482401 Z M71.0655327,8.43928492 C71.0565701,6.20414695 71.9398736,4.0574863 73.520182,2.47383911 C75.1004903,0.890191923 77.2476532,-1.64922745e-05 79.4870236,1.40949765e-06 C84.1396473,-0.00265752862 87.9149889,3.75697561 87.9229595,8.40083716 C87.925515,10.631427 87.040196,12.7716708 85.4617627,14.3507386 C83.8833295,15.9298064 81.7410794,16.818349 79.5062837,16.8208968 C77.2710978,16.8247239 75.1260761,15.9414816 73.5437534,14.3657426 C71.9614307,12.7900036 71.0716225,10.6510433 71.0703478,8.42006104 L71.0655327,8.43928492 Z" id="Shape" fill="#F5A146" fill-rule="nonzero"></path>
                        <path d="M6.9835713,76.5212654 C4.78000181,76.1366079 2.81949733,74.892222 1.5333937,73.0618883 C0.247290069,71.2315547 -0.259048971,68.965223 0.125777587,66.7615149 C0.510404836,64.557772 1.75469284,62.5971132 3.58488248,61.3109084 C5.41507211,60.0247036 7.68122552,59.5183247 9.88476021,59.9031815 C12.0883297,60.287839 14.0488342,61.532225 15.3349378,63.3625586 C16.6210414,65.1928923 17.1273805,67.459224 16.7425539,69.6629321 C16.0302479,73.6900911 12.5331575,76.6269032 8.44380426,76.6321169 C7.95475811,76.6378487 7.46614889,76.6007567 6.9835713,76.5212654 Z M12.7666721,51.9411529 C8.73482044,49.6093589 7.35437217,44.4516846 9.68235168,40.4174178 C10.7979481,38.4767562 12.6391912,37.0592096 14.8004987,36.4770299 C16.9618062,35.8948503 19.2658775,36.1957961 21.2051801,37.3135761 C25.2370317,39.6453702 26.61748,44.8030445 24.2895005,48.8373113 C22.781948,51.4486859 19.9938073,53.0551636 16.9786972,53.0496678 C15.506498,53.0472419 14.06073,52.6583495 12.7859491,51.9218744 L12.7666721,51.9411529 Z M26.6798488,30.8070758 C25.2400259,29.0957738 24.5392388,26.8823872 24.7317623,24.6541817 C24.9242858,22.4259763 25.9943369,20.3656193 27.7063492,18.9266881 C29.4183102,17.4864766 31.6322995,16.7855096 33.8611179,16.9780382 C36.0899364,17.1705669 38.1509495,18.240815 39.5906214,19.9532692 C41.0293171,21.665786 41.7284675,23.8799284 41.5341321,26.1081817 C41.3397967,28.336435 40.26791,30.3960935 38.5544825,31.8336569 C37.0379667,33.113688 35.1172754,33.8154358 33.1328255,33.8145248 C30.6431332,33.8149466 28.2807722,32.7139539 26.6798488,30.8070758 Z M46.9207017,15.6927164 C46.1537248,13.5912858 46.2529307,11.2712137 47.1964932,9.24293698 C48.1400557,7.21466029 49.8506751,5.64434216 51.9519994,4.87746688 C54.0525758,4.10885274 56.3724974,4.20674973 58.4008642,5.14959866 C60.4292309,6.09244759 61.9996928,7.80292372 62.7663979,9.90434087 C63.5351112,12.0057471 63.4373509,14.326518 62.4946356,16.3558206 C61.5519202,18.3851231 59.8415208,19.9566224 57.7399195,20.72441 C56.8141262,21.0658879 55.8351222,21.2404907 54.8483691,21.2401104 C51.3042507,21.2395172 48.138622,19.0230177 46.9255209,15.6927164 L46.9207017,15.6927164 Z M71.1277978,8.46327153 C71.1188274,6.22178073 72.0029048,4.06901872 73.5845977,2.4808704 C75.1662907,0.892722077 77.3153349,-1.65391498e-05 79.5566673,1.4135038e-06 C84.2133675,-0.002665082 87.9920169,3.76765389 87.9999945,8.42471449 C88.0025522,10.6616443 87.1164575,12.8079712 85.5366413,14.3915271 C83.9568251,15.975083 81.8126981,16.8661511 79.5759443,16.8687061 C77.3388,16.8725441 75.1918989,15.9867914 73.6081899,14.4065737 C72.0244808,12.8263561 71.1338929,10.6813163 71.1326171,8.44399301 L71.1277978,8.46327153 Z" id="Shape" fill="#D8D8D8" fill-rule="nonzero"></path>
                        <path d="M76.0889757,152.961743 C76.0889757,150.836183 77.8172793,149.113077 79.9492498,149.113077 C82.0812202,149.113077 83.8095238,150.836183 83.8095238,152.961743 C83.8095238,155.087302 82.0812202,156.810409 79.9492498,156.810409 C77.8172793,156.810409 76.0889757,155.087302 76.0889757,152.961743 Z M53.8923999,152.244929 C51.8902225,151.517663 50.8578207,149.310488 51.5858861,147.313826 C51.936153,146.354048 52.6547017,145.572435 53.5832861,145.14112 C54.5118705,144.709806 55.574333,144.664165 56.5366876,145.014248 C58.5350369,145.745429 59.5625658,147.951417 58.8335507,149.945351 C58.2793432,151.467324 56.8289442,152.480704 55.204893,152.48066 C54.748885,152.481409 54.2963507,152.401598 53.8682731,152.244929 L53.8923999,152.244929 Z M30.9720226,139.034383 C30.1868444,138.379232 29.6948893,137.439924 29.6043952,136.423122 C29.5139011,135.40632 29.8322817,134.395326 30.4894884,133.612575 C31.1466159,132.829758 32.0887569,132.339282 33.1086257,132.24906 C34.1284945,132.158838 35.1425374,132.476261 35.9276495,133.131492 C36.7128277,133.786643 37.2047828,134.725951 37.2952769,135.742753 C37.385771,136.759555 37.0673904,137.770549 36.4101837,138.5533 C35.6758316,139.423612 34.5929902,139.92554 33.4522487,139.924387 C32.5380962,139.932727 31.6506418,139.617341 30.9478959,139.034383 L30.9720226,139.034383 Z M13.948214,118.828887 C12.8801623,116.990198 13.5087138,114.636449 15.3523887,113.570647 C17.18854,112.516401 19.533828,113.134777 20.6071868,114.956167 C21.1304714,115.842738 21.2759895,116.901267 21.0112653,117.895517 C20.7465411,118.889767 20.093609,119.736981 19.1981868,120.248082 C18.611267,120.585571 17.9455906,120.763104 17.2680497,120.762842 C15.8866031,120.761169 14.6113565,120.02364 13.9240873,118.828887 L13.948214,118.828887 Z M4.86209398,94.0290457 C4.49415996,91.9369559 5.89572288,89.9432047 7.99374131,89.5742149 C10.0937275,89.2075769 12.0942254,90.6075914 12.4620085,92.7012559 C12.8299426,94.7933458 11.4283796,96.787097 9.3303612,97.1560868 C9.10879957,97.1939957 8.88443864,97.2133068 8.65963858,97.2138168 L8.6499879,97.2138168 C6.78040478,97.2068068 5.18458613,95.8650805 4.86209398,94.0290457 Z M7.98409062,72.0964606 C5.88411129,71.7297834 4.47987416,69.7353012 4.84761795,67.6416298 C5.21540112,65.5479653 7.21589894,64.1479508 9.31588517,64.5145887 C11.4136385,64.8813404 12.8171424,66.8726285 12.4523578,68.9646087 C12.1247589,70.8021736 10.5219828,72.1405636 8.6499879,72.1397581 C8.42719737,72.1439544 8.20444732,72.1294709 7.98409062,72.0964606 Z M15.29931,48.085596 C13.4538853,47.0214402 12.8230699,44.6673038 13.8903099,42.8273561 C14.9576754,40.9874807 17.3189121,40.3585623 19.1644094,41.4225931 C21.00694,42.4866132 21.6373666,44.8371463 20.5734094,46.6760221 C19.883683,47.8670709 18.6088998,48.6006639 17.229447,48.600355 C16.5519061,48.6006179 15.8862297,48.4230849 15.29931,48.085596 Z M30.4267589,28.0292356 C29.7695522,27.2464844 29.4511716,26.2354908 29.5416658,25.2186888 C29.6321599,24.2018868 30.1241149,23.2625789 30.9092932,22.6074274 C31.6944052,21.952197 32.7084482,21.6347738 33.728317,21.7249958 C34.7481858,21.8152178 35.6903267,22.3056935 36.3474543,23.0885107 C37.004661,23.8712618 37.3230416,24.8822555 37.2325474,25.8990574 C37.1420533,26.9158594 36.6500983,27.8551673 35.86492,28.5103188 C35.1692729,29.094202 34.2892112,29.4145012 33.3798686,29.4147553 C32.2384529,29.4109093 31.1572626,28.9036438 30.4267589,28.0292356 Z M51.4990299,14.3135523 C51.1476501,13.3547089 51.1927526,12.2959658 51.6244135,11.3702796 C52.0560744,10.4445934 52.8389267,9.72780791 53.8007184,9.37763823 C55.8020341,8.65129001 58.01527,9.67815723 58.7466945,11.6724053 C59.4788859,13.6677462 58.4507624,15.8771638 56.4498314,16.6083194 C56.0263191,16.763319 55.5788326,16.8431034 55.1276876,16.8440502 C53.504875,16.8448302 52.0548431,15.8336291 51.4990299,14.3135523 Z M79.8720443,12.485436 C77.7400738,12.485436 76.0117702,10.7623295 76.0117702,8.63677003 C76.0117702,6.51121053 77.7400738,4.78810409 79.8720443,4.78810409 C82.0040148,4.78810409 83.7323183,6.51121053 83.7323183,8.63677003 C83.7323183,10.7623295 82.0040148,12.485436 79.8720443,12.485436 C77.7440682,12.485436 79.8768696,12.485436 79.8720443,12.485436 Z" id="Shape" fill="#FFFFFF" fill-rule="nonzero"></path>
                    </g>
                </g>
            </g>
        </g>
    </g>
</svg>