<?xml version="1.0" encoding="UTF-8"?>
<svg width="74px" height="74px" viewBox="0 0 74 74" version="1.1" xmlns="http://www.w3.org/2000/svg" xmlns:xlink="http://www.w3.org/1999/xlink">
    <!-- Generator: Sketch 51.2 (57519) - http://www.bohemiancoding.com/sketch -->
    <title>contract (2)</title>
    <desc>Created with Sketch.</desc>
    <defs></defs>
    <g id="Page-1" stroke="none" stroke-width="1" fill="none" fill-rule="evenodd">
        <g id="Property-management-school-final" transform="translate(-501.000000, -10721.000000)" fill="#5E577C" fill-rule="nonzero" stroke="#5E577C" stroke-width="0.5">
            <g id="contract-(2)" transform="translate(502.000000, 10722.000000)">
                <path d="M68.8899655,15.4909969 L67.1431571,14.9454985 C66.7064187,14.8363988 66.2696804,14.7272991 65.7239024,14.7272991 C63.7587248,14.7272991 62.0119164,16.0363505 61.3568089,17.8909003 L60.3742926,20.8363022 L60.3742926,18.6544533 L60.3742926,18.5454985 C60.3742926,18.2181994 60.1559234,17.8909003 59.9375542,17.6727009 L42.0327317,0.32729907 C41.8143625,0.10909969 41.4868087,0 41.2684395,0 L6.22294156,0 C5.56783403,0 5.13124067,0.43639876 5.13124067,1.09085201 L5.13124067,4.47265263 L1.09170089,4.47265263 C0.436593355,4.47265263 0,4.90905139 0,5.56350465 L0,70.909148 C0,71.5637461 0.436738355,72 1.09170089,72 L54.151206,72 C54.8063135,72 55.2429069,71.5636012 55.2429069,70.909148 L55.2429069,67.5273474 L59.2824467,67.5273474 C59.9375542,67.5273474 60.3741476,67.0909486 60.3741476,66.4364954 L60.3741476,51.7091963 L63.431026,47.5636978 L63.5402106,47.2363988 L71.7284748,21.1636012 C72.6019515,18.7636978 71.2918814,16.2545498 68.8899655,15.4909969 Z M42.3601404,3.70909969 L56.6621615,17.4546464 L42.3601404,17.4546464 L42.3601404,3.70909969 Z M53.0595051,69.818296 L2.18340177,69.818296 L2.18340177,6.65450155 L5.13109567,6.65450155 L5.13109567,66.4364954 C5.13109567,67.0910935 5.56783403,67.5273474 6.22279656,67.5273474 L53.0593601,67.5273474 L53.0595051,69.818296 Z M58.2999304,65.3456433 L58.1907458,65.3456433 L7.31464244,65.3456433 L7.31464244,2.18184892 L40.1765936,2.18184892 L40.1765936,18.5454985 C40.1765936,19.2000966 40.613332,19.6363505 41.2682945,19.6363505 L58.2997854,19.6363505 L58.2997854,27.8182477 L53.1685447,43.9636978 L53.1685447,44.2909969 L53.3869139,58.1456433 C53.3869139,58.5820421 53.7144676,59.0184409 54.151206,59.1273957 C54.5879444,59.2364954 55.1337223,59.1273957 55.3520915,58.6909969 L58.2997854,54.7636978 L58.2999304,65.3456433 Z M55.4612761,54.7636978 L55.2429069,45.709148 L60.7017013,47.4545981 L55.4612761,54.7636978 Z M69.7634422,20.509148 L61.9027318,45.4910935 L55.5704607,43.4183443 L63.431171,18.5454985 C63.8679094,17.3455467 65.1779795,16.5818489 66.3788649,17.0182477 L68.1256734,17.5637461 C69.4358884,17.8909003 70.2000355,19.3091963 69.7634422,20.509148 Z" id="Shape"></path>
                <path d="M14.560114,19.7802198 L30.5387871,19.7802198 C31.2046142,19.7802198 31.6483516,19.3391798 31.6483516,18.6777661 L31.6483516,7.43212397 C31.6483516,6.77056393 31.2044669,6.32967033 30.5387871,6.32967033 L14.560114,6.32967033 C13.8942869,6.32967033 13.4505495,6.77071036 13.4505495,7.43212397 L13.4505495,18.6777661 C13.4505495,19.2290662 14.0054054,19.7802198 14.560114,19.7802198 Z M15.669826,8.53457762 L29.4292225,8.53457762 L29.4292225,17.5751661 L15.669826,17.5751661 L15.669826,8.53457762 Z" id="Shape"></path>
                <path d="M12.9669771,30.0659341 L46.3736822,30.0659341 C47.0330769,30.0659341 47.4725275,29.5911457 47.4725275,28.8791209 C47.4725275,28.1669384 47.032931,27.6923077 46.3736822,27.6923077 L12.9669771,27.6923077 C12.3075824,27.6923077 11.8681319,28.167096 11.8681319,28.8791209 C11.867986,29.5911457 12.3075824,30.0659341 12.9669771,30.0659341 Z" id="Shape"></path>
                <path d="M12.9669771,38.7692308 L46.3736822,38.7692308 C47.0330769,38.7692308 47.4725275,38.2944424 47.4725275,37.5824176 C47.4725275,36.8703927 47.032931,36.3956044 46.3736822,36.3956044 L12.9669771,36.3956044 C12.3075824,36.3956044 11.8681319,36.8703927 11.8681319,37.5824176 C11.8681319,38.2944424 12.3075824,38.7692308 12.9669771,38.7692308 Z" id="Shape"></path>
                <path d="M12.9669771,45.8901099 L46.3736822,45.8901099 C47.0330769,45.8901099 47.4725275,45.4153216 47.4725275,44.7032967 C47.4725275,43.9912718 47.032931,43.5164835 46.3736822,43.5164835 L12.9669771,43.5164835 C12.3075824,43.5164835 11.8681319,43.9912718 11.8681319,44.7032967 C11.8681319,45.4153216 12.3075824,45.8901099 12.9669771,45.8901099 Z" id="Shape"></path>
                <path d="M47.4725275,52.6153846 C47.4725275,51.9032021 47.0315699,51.4285714 46.37028,51.4285714 L12.9703794,51.4285714 C12.308943,51.4285714 11.8681319,51.9033598 11.8681319,52.6153846 C11.8681319,53.3274095 12.3090894,53.8021978 12.9703794,53.8021978 L46.4805193,53.8021978 C47.0315699,53.8021978 47.4725275,53.2087124 47.4725275,52.6153846 Z" id="Shape"></path>
                <path d="M51.2145416,59.3406593 L34.3477175,59.3406593 C33.6774595,59.3406593 33.2307692,59.8154477 33.2307692,60.5274725 C33.2307692,61.2394974 33.6776079,61.7142857 34.3477175,61.7142857 L51.1028319,61.7142857 C51.7730899,61.7142857 52.2197802,61.2394974 52.2197802,60.5274725 C52.2197802,59.8154477 51.7730899,59.3406593 51.2145416,59.3406593 Z" id="Shape"></path>
            </g>
        </g>
    </g>
</svg>