<svg xmlns="http://www.w3.org/2000/svg" xmlns:xlink="http://www.w3.org/1999/xlink" width="171" height="50" viewBox="0 0 171 50">
    <defs>
        <path id="a" d="M.068.92h122.728v48.57H.067z"/>
    </defs>
    <g fill="none" fill-rule="evenodd">
        <g>
            <mask id="b" fill="#fff">
                <use xlink:href="#a"/>
            </mask>
            <path fill="#4D7CB2" d="M86.69 45.963V.943h33.827v12.13l-19.07-.062v5.064h17.757l.062 11.255h-17.82v4.815l19.07.063v11.755H86.69" mask="url(#b)"/>
            <path fill="#B7B8B5" d="M27.575.92v23.995c0 5.713-2.19 8.567-6.566 8.567-4.169 0-6.252-2.875-6.252-8.628V.919H0v23.934c0 14.09 7.004 21.135 21.01 21.135 14.214 0 21.32-7.045 21.32-21.134V.919H27.575" mask="url(#b)"/>
            <path fill="#4D7CB2" d="M60.284 12.26h1.438c1.293-.04 2.48.241 3.564.845 1.083.605 1.626 1.554 1.626 2.846-.043 1.417-.584 2.428-1.626 3.032-1.043.604-2.23.907-3.564.907h-1.438v-7.63zM73.42 28.026v-.001l-.006-.008c3.084-1.125 5.408-2.728 6.972-4.814 1.564-2.084 2.344-4.502 2.344-7.252 0-2.584-.479-4.825-1.438-6.724-.96-1.894-2.25-3.458-3.875-4.689-1.627-1.228-3.524-2.135-5.69-2.719-2.168-.583-4.482-.875-6.94-.875H45.466v45.019h14.818v-12.88l6.093 12.88h18.945L73.42 28.026z" mask="url(#b)"/>
            <path fill="#B7B8B5" d="M.068 49.49h122.728v-2.052H.067z" mask="url(#b)"/>
        </g>
        <path fill="#B7B8B5" d="M161.011 13.209c-.752 0-1.326.215-1.72.64v5.69c.374.442.88.662 1.517.662 1.228 0 2.099-.292 2.61-.875.512-.585.769-1.516.769-2.8 0-2.21-1.059-3.317-3.176-3.317"/>
        <path fill="#B7B8B5" d="M165.356 20.766c-.983 1.06-2.315 1.592-3.998 1.592-1.012 0-1.88-.268-2.606-.804l-.57.804h-1.435V7.194l2.544-.61v5.089a4.183 4.183 0 0 1 2.219-.622c1.594 0 2.88.504 3.857 1.512.977 1.007 1.466 2.298 1.466 3.872 0 1.825-.493 3.27-1.477 4.331zm-11.445 1.399h-2.544v-.916c-.36.305-.855.567-1.486.784-.63.217-1.211.325-1.74.325-2.53 0-3.796-1.342-3.796-4.03v-7.072h2.543v6.879c0 1.397.629 2.096 1.884 2.096a3.05 3.05 0 0 0 1.608-.448c.495-.298.823-.643.987-1.037v-7.49h2.544v10.909zm-13.836.193c-1.154 0-1.73-.8-1.73-2.402V7.194l2.543-.61v12.253c0 1.343.4 2.143 1.202 2.402-.394.746-1.067 1.12-2.015 1.12zm-6.434-.182c-.553.12-1.206.182-1.959.182-1.683 0-3.011-.49-3.984-1.47-.973-.981-1.462-2.342-1.462-4.087 0-1.716.535-3.103 1.599-4.162 1.065-1.058 2.516-1.588 4.356-1.588 1.269 0 2.37.358 3.306 1.07l-1.088 1.903c-.597-.563-1.398-.846-2.401-.846-.965 0-1.725.322-2.285.962-.56.643-.84 1.529-.84 2.66 0 2.289 1.088 3.43 3.267 3.43a3.69 3.69 0 0 0 2.493-.935l.936 2.006c-.74.461-1.386.752-1.938.875zm-11.366 7.167h48.546V.943h-48.546v28.4zM157.836 38.922c.598-.563.897-1.146.897-1.747 0-.36-.12-.647-.36-.861-.24-.213-.55-.32-.933-.32-.86 0-1.291.399-1.291 1.194 0 .588.562 1.167 1.687 1.734M151.3 36.363c-.263-.245-.597-.369-1.001-.369-1.244 0-1.867 1.236-1.867 3.705 0 2.676.572 4.014 1.715 4.014.655 0 1.136-.296 1.443-.89.309-.593.462-1.632.462-3.117 0-1.024-.06-1.776-.178-2.255-.118-.479-.31-.841-.574-1.088M144.1 36.363c-.264-.245-.597-.369-1.002-.369-1.243 0-1.866 1.236-1.866 3.705 0 2.676.572 4.014 1.714 4.014.656 0 1.136-.296 1.444-.89.308-.593.462-1.632.462-3.117 0-1.024-.06-1.776-.178-2.255-.12-.479-.31-.841-.574-1.088"/>
        <path fill="#B7B8B5" d="M159.616 44.099c-.537.49-1.272.735-2.208.735-1.951 0-2.927-.937-2.927-2.809 0-.54.167-1.072.501-1.595.334-.522.747-.89 1.239-1.1a2.738 2.738 0 0 1-1.001-.917c-.26-.39-.39-.795-.39-1.213 0-.715.243-1.282.728-1.7.486-.418 1.114-.626 1.882-.626.832 0 1.475.208 1.932.627.457.417.685.986.685 1.706 0 .422-.138.852-.415 1.29-.277.436-.597.759-.962.965 1.16.65 1.74 1.505 1.74 2.563 0 .893-.268 1.584-.804 2.074zm-7.044-.613c-.532.899-1.309 1.348-2.333 1.348-1.024 0-1.8-.363-2.33-1.087-.53-.726-.794-2.114-.794-4.166 0-1.39.281-2.521.844-3.395.562-.874 1.353-1.312 2.373-1.312 1.01 0 1.77.364 2.276 1.094.509.73.762 2.004.762 3.823 0 1.565-.265 2.796-.798 3.695zm-7.2 0c-.532.899-1.309 1.348-2.333 1.348-1.025 0-1.8-.363-2.33-1.087-.53-.726-.795-2.114-.795-4.166 0-1.39.281-2.521.844-3.395.562-.874 1.353-1.312 2.373-1.312 1.01 0 1.77.364 2.276 1.094.508.73.763 2.004.763 3.823 0 1.565-.266 2.796-.797 3.695zm-6.693 1.216h-5.934v-.263l3.027-4.634c.632-.971.948-1.796.948-2.472 0-.892-.503-1.339-1.508-1.339-.357 0-.691.094-1.003.28a1.708 1.708 0 0 0-.68.71l-.849-.7c.149-.43.442-.773.88-1.028.436-.255.965-.382 1.585-.382.927 0 1.653.214 2.176.642.522.429.784 1.034.784 1.817 0 .725-.348 1.64-1.042 2.742l-2.169 3.441h3.785v1.186zm-16.404 4.788h48.546V31.17h-48.546V49.49z"/>
        <path fill="#B7B8B5" d="M157.25 39.904c-.967.522-1.451 1.23-1.451 2.121 0 .48.15.881.449 1.204.298.323.685.484 1.16.484.491 0 .898-.157 1.216-.474.318-.317.478-.72.478-1.213 0-.356-.11-.691-.33-1.005-.219-.314-.727-.688-1.523-1.117"/>
    </g>
</svg>
