<?xml version="1.0" encoding="UTF-8"?>
<svg width="72px" height="72px" viewBox="0 0 72 72" version="1.1" xmlns="http://www.w3.org/2000/svg" xmlns:xlink="http://www.w3.org/1999/xlink">
    <!-- Generator: Sketch 51.2 (57519) - http://www.bohemiancoding.com/sketch -->
    <title>wallet</title>
    <desc>Created with Sketch.</desc>
    <defs></defs>
    <g id="Page-1" stroke="none" stroke-width="1" fill="none" fill-rule="evenodd">
        <g id="Property-management-school-final" transform="translate(-771.000000, -10722.000000)" fill="#5E577C" fill-rule="nonzero">
            <g id="wallet" transform="translate(771.000000, 10722.000000)">
                <path d="M47.4725275,47.4725275 C46.5991072,47.4725275 45.8901099,48.1815248 45.8901099,49.0549451 C45.8901099,49.9283653 46.5991072,50.6373626 47.4725275,50.6373626 C48.3459478,50.6373626 49.0549451,49.9283653 49.0549451,49.0549451 C49.0549451,48.1815248 48.3459478,47.4725275 47.4725275,47.4725275 Z" id="Shape"></path>
                <path d="M28.1339109,45.6640502 C27.3422993,45.6640502 26.6986943,45.0304651 26.6986943,44.2511774 C26.6986943,43.4718897 27.3422993,42.8383046 28.1339109,42.8383046 C28.6424036,42.8383046 29.1789279,43.0938359 29.6862993,43.5767513 C30.2559009,44.1192724 31.1646846,44.104923 31.7157852,43.5436372 C32.266886,42.9829033 32.2517489,42.0888196 31.6821473,41.5462986 C30.9538872,40.852004 30.2250661,40.4596006 29.5691274,40.2454622 L29.5691274,38.599686 C29.5691274,37.8192945 28.9266438,37.1868132 28.1339109,37.1868132 C27.3411779,37.1868132 26.6986943,37.8192945 26.6986943,38.599686 L26.6986943,40.2553964 C25.0280126,40.8387583 23.8282613,42.4094756 23.8282613,44.2511774 C23.8282613,46.5884886 25.7596366,48.4897959 28.1339109,48.4897959 C28.9249619,48.4897959 29.5691274,49.1233811 29.5691274,49.9026688 C29.5691274,50.6819564 28.9249619,51.3155416 28.1339109,51.3155416 C27.52058,51.3155416 26.8584743,50.935832 26.2698113,50.2465046 C25.7601974,49.649345 24.8547775,49.5720786 24.2481742,50.0743108 C23.6410103,50.5765428 23.5630827,51.467867 24.0726966,52.0650266 C24.840201,52.9635252 25.7422572,53.5893838 26.6986943,53.9050726 L26.6986943,55.5541601 C26.6986943,56.3345517 27.3411779,56.967033 28.1339109,56.967033 C28.9266438,56.967033 29.5691274,56.3345517 29.5691274,55.5541601 L29.5691274,53.8984498 C31.2392485,53.3150878 32.4395604,51.7443705 32.4395604,49.9026688 C32.4395604,47.5653576 30.5081851,45.6640502 28.1339109,45.6640502 Z" id="Shape"></path>
                <path d="M16.6153846,23.7362637 C17.4894232,23.7362637 18.1978022,23.0869163 18.1978022,22.2857143 L18.1978022,16.4835165 C18.1978022,15.6823145 17.4894232,15.032967 16.6153846,15.032967 C15.7413461,15.032967 15.032967,15.6823145 15.032967,16.4835165 L15.032967,22.2857143 C15.032967,23.0869163 15.7413461,23.7362637 16.6153846,23.7362637 Z" id="Shape"></path>
                <path d="M66.375,33.1875 L66.375,21.9375 C66.375,18.0604249 63.2208251,14.90625 59.34375,14.90625 L51.46875,14.90625 L51.46875,4.21875 C51.46875,1.89239498 49.576355,0 47.25,0 L21.09375,0 C18.767395,0 16.875,1.89239498 16.875,4.21875 L16.875,9.28125 L12.65625,9.28125 C10.329895,9.28125 8.4375,11.173645 8.4375,13.5 L8.4375,14.90625 L7.03125,14.90625 C3.15417487,14.90625 0,18.0604249 0,21.9375 L0,64.96875 C0,68.8458251 3.15417487,72 7.03125,72 L50.0625,72 C53.4578247,72 56.2988891,69.5808105 56.9520264,66.375 L59.34375,66.375 C63.2208251,66.375 66.375,63.2208251 66.375,59.34375 L66.375,55.6875 L67.78125,55.6875 C70.107605,55.6875 72,53.795105 72,51.46875 L72,38.8125 C72,35.7110595 69.4764405,33.1875 66.375,33.1875 Z M69.1875,38.8125 C69.1875,40.3659668 67.9284668,41.625 66.375,41.625 L66.375,36 C67.9257203,36 69.1875,37.2617798 69.1875,38.8125 Z M59.34375,17.71875 C61.670105,17.71875 63.5625,19.611145 63.5625,21.9375 L63.5625,41.625 L57.09375,41.625 L57.09375,33.1875 C57.09375,29.7921753 54.6745605,26.9511109 51.46875,26.2979736 L51.46875,17.71875 L59.34375,17.71875 Z M19.6875,4.21875 C19.6875,3.44311523 20.3181152,2.8125 21.09375,2.8125 L47.25,2.8125 C48.0256348,2.8125 48.65625,3.44311523 48.65625,4.21875 L48.65625,26.15625 L42.1875,26.15625 L42.1875,13.5 C42.1875,11.173645 40.295105,9.28125 37.96875,9.28125 L19.6875,9.28125 L19.6875,4.21875 Z M33.75,26.15625 L33.75,12.09375 L37.96875,12.09375 C38.7443848,12.09375 39.375,12.7243652 39.375,13.5 L39.375,26.15625 L33.75,26.15625 Z M25.3125,26.15625 L25.3125,12.09375 L30.9375,12.09375 L30.9375,26.15625 L25.3125,26.15625 Z M11.25,13.5 C11.25,12.7243652 11.8806152,12.09375 12.65625,12.09375 L22.5,12.09375 L22.5,26.15625 L11.25,26.15625 L11.25,13.5 Z M7.03125,17.71875 L8.4375,17.71875 L8.4375,26.15625 L7.33227539,26.15625 C5.00811764,26.15625 2.8125,24.4731445 2.8125,21.9375 C2.8125,19.611145 4.70489498,17.71875 7.03125,17.71875 Z M50.0625,69.1875 L7.03125,69.1875 C4.70489498,69.1875 2.8125,67.295105 2.8125,64.96875 L2.8125,27.4757079 C4.06988522,28.4122925 5.64916992,28.96875 7.33227539,28.96875 L50.0625,28.96875 C52.388855,28.96875 54.28125,30.861145 54.28125,33.1875 L54.28125,41.625 L44.4375,41.625 C42.111145,41.625 40.21875,43.517395 40.21875,45.84375 L40.21875,51.46875 C40.21875,53.795105 42.111145,55.6875 44.4375,55.6875 L54.28125,55.6875 L54.28125,64.96875 C54.28125,67.295105 52.388855,69.1875 50.0625,69.1875 Z M63.5625,59.34375 C63.5625,61.670105 61.670105,63.5625 59.34375,63.5625 L57.09375,63.5625 L57.09375,55.6875 L63.5625,55.6875 L63.5625,59.34375 Z M67.78125,52.875 L44.4375,52.875 C43.6618652,52.875 43.03125,52.2443848 43.03125,51.46875 L43.03125,45.84375 C43.03125,45.0681152 43.6618652,44.4375 44.4375,44.4375 L66.375,44.4375 C67.3786011,44.4375 68.3415527,44.1749267 69.1875,43.6843872 L69.1875,51.46875 C69.1875,52.2443848 68.5568848,52.875 67.78125,52.875 Z" id="Shape"></path>
                <path d="M59.4845155,47.4725275 L52.8671329,47.4725275 C52.0725524,47.4725275 51.4285714,48.1809065 51.4285714,49.0549451 C51.4285714,49.9289836 52.0725524,50.6373626 52.8671329,50.6373626 L59.4845155,50.6373626 C60.279096,50.6373626 60.9230769,49.9289836 60.9230769,49.0549451 C60.9230769,48.1809065 60.279096,47.4725275 59.4845155,47.4725275 Z" id="Shape"></path>
            </g>
        </g>
    </g>
</svg>